<?xml version="1.0" encoding="UTF-8" standalone="yes"?>
<!DOCTYPE svg PUBLIC "-//W3C//DTD SVG 20010904//EN" "http://www.w3.org/TR/2001/REC-SVG-20010904/DTD/svg10.dtd">
<svg xmlns="http://www.w3.org/2000/svg" width="5.33333in" height="4in" viewBox="0 0 480 360" style="zoom: 1;"><path d="M160.25,26.75 C160.25,27.43 159.72,28.18 158.67,29.00 C157.62,29.82 157.02,30.42 156.88,30.80 C154.93,34.46 154.02,41.69 154.17,52.47 C154.17,52.47 154.28,56.84 154.28,56.84 C154.51,56.77 154.77,56.73 155.08,56.73 C156.20,56.73 157.27,57.38 158.28,58.66 C159.29,59.93 159.80,61.16 159.80,62.36 C159.80,63.26 159.08,63.89 157.66,64.27 C156.53,64.50 155.41,64.73 154.28,64.95 C154.35,68.48 154.43,72.04 154.50,75.64 C154.66,80.21 155.14,83.62 155.97,85.88 C156.57,87.75 156.88,88.98 156.88,89.58 C156.88,91.08 156.31,92.45 155.19,93.69 C154.06,94.93 152.75,95.55 151.25,95.55 C148.41,95.55 146.53,94.05 145.62,91.05 C145.48,90.45 145.14,87.82 144.61,83.17 C144.46,81.53 144.39,79.54 144.39,77.22 C144.39,77.22 144.39,72.59 144.39,72.59 C144.32,69.52 144.13,67.01 143.83,65.06 C139.47,65.22 134.30,65.87 128.30,67.02 C123.13,68.01 117.99,69.00 112.89,70.00 C113.19,70.99 113.34,75.12 113.34,82.39 C113.34,88.20 114.20,92.03 115.92,93.88 C116.15,94.25 116.27,94.63 116.27,95.02 C116.27,97.00 114.77,98.00 111.77,98.00 C108.99,98.00 106.82,97.13 105.23,95.39 C104.27,94.33 103.33,86.46 102.42,71.78 C100.99,71.48 99.87,70.61 99.05,69.17 C98.22,67.73 97.81,66.23 97.81,64.64 C97.81,63.73 98.30,63.11 99.27,62.77 C100.24,62.42 101.19,62.10 102.09,61.80 C102.16,60.82 102.31,59.04 102.53,56.47 C102.76,54.27 102.88,52.53 102.88,51.25 C102.88,37.94 103.59,29.46 105.02,25.83 C106.21,22.88 108.27,21.41 111.20,21.41 C113.00,21.41 114.69,21.99 116.27,23.16 C117.84,24.31 118.62,25.76 118.62,27.48 C118.62,28.38 118.32,29.51 117.72,30.86 C116.89,32.66 116.45,33.71 116.38,34.00 C114.35,40.30 113.34,47.80 113.34,56.50 C113.34,57.93 113.34,58.79 113.34,59.09 C114.02,59.02 115.78,58.73 118.62,58.20 C127.48,56.40 135.80,55.50 143.61,55.50 C143.83,44.50 144.12,37.39 144.50,34.17 C145.78,23.39 148.37,18.00 152.27,18.00 C154.59,18.00 156.50,18.88 158.00,20.64 C159.50,22.40 160.25,24.44 160.25,26.75 M209.20,76.88 C209.20,86.62 208.90,93.48 208.30,97.48 C207.92,99.83 206.35,101.00 203.58,101.00 C199.38,101.00 197.50,98.84 197.95,94.53 C194.20,96.84 190.30,98.00 186.25,98.00 C182.35,98.00 178.64,97.02 175.11,95.06 C170.91,92.73 168.81,89.75 168.81,86.12 C168.81,82.59 171.21,79.27 176.02,76.19 C180.37,73.40 184.46,72.00 188.28,72.00 C188.28,72.00 197.84,72.00 197.84,72.00 C197.84,72.00 197.84,69.20 197.84,69.20 C197.91,61.07 195.59,57.00 190.86,57.00 C184.93,57.00 181.97,59.74 181.97,65.22 C181.97,67.07 180.92,68.00 178.83,68.00 C177.55,68.00 176.21,67.42 174.83,66.25 C173.44,65.07 172.75,63.84 172.75,62.55 C172.75,58.31 174.25,54.82 177.25,52.09 C180.25,49.37 183.85,48.00 188.05,48.00 C202.15,48.00 209.20,57.62 209.20,76.88 M197.84,81.20 C197.84,79.73 196.72,79.00 194.47,79.00 C185.09,79.00 180.41,81.16 180.41,85.48 C180.41,87.83 182.47,89.00 186.59,89.00 C189.14,89.00 191.55,88.30 193.80,86.91 C196.49,85.38 197.84,83.48 197.84,81.20 M257.06,68.30 C257.06,75.92 255.71,82.39 253.02,87.69 C249.64,94.56 244.54,98.00 237.72,98.00 C234.04,98.00 230.89,97.33 228.27,96.00 C228.27,96.83 228.27,97.97 228.27,99.41 C228.27,101.07 228.27,102.21 228.27,102.81 C228.27,110.08 229.09,115.80 230.73,119.95 C231.48,121.62 231.86,122.68 231.86,123.14 C231.86,125.71 230.36,127.00 227.36,127.00 C225.11,127.00 223.42,126.58 222.30,125.75 C221.47,125.22 220.65,123.32 219.83,120.06 C219.15,117.19 218.81,114.99 218.81,113.48 C218.81,113.48 218.81,86.11 218.81,86.11 C218.81,83.61 218.96,80.20 219.27,75.88 C219.57,71.03 219.75,67.66 219.83,65.77 C219.90,63.87 219.90,61.37 219.83,58.27 C219.75,54.33 219.72,51.79 219.72,50.66 C219.72,44.22 221.82,41.00 226.02,41.00 C227.05,41.00 228.02,41.37 228.92,42.11 C229.83,42.84 230.28,43.71 230.28,44.72 C230.28,46.43 230.09,49.53 229.72,54.03 C232.64,49.34 236.17,47.00 240.30,47.00 C245.85,47.00 250.12,49.24 253.12,53.72 C255.75,57.61 257.06,62.46 257.06,68.30 M247.05,67.66 C247.05,59.89 245.32,56.00 241.88,56.00 C240.38,56.00 238.43,57.40 236.03,60.20 C231.38,65.61 228.82,73.06 228.38,82.55 C229.20,82.98 230.66,84.50 232.77,87.08 C234.41,89.03 236.05,90.00 237.70,90.00 C243.93,90.00 247.05,82.55 247.05,67.66 M303.06,68.30 C303.06,75.92 301.71,82.39 299.02,87.69 C295.64,94.56 290.54,98.00 283.72,98.00 C280.04,98.00 276.89,97.33 274.27,96.00 C274.27,96.83 274.27,97.97 274.27,99.41 C274.27,101.07 274.27,102.21 274.27,102.81 C274.27,110.08 275.09,115.80 276.73,119.95 C277.48,121.62 277.86,122.68 277.86,123.14 C277.86,125.71 276.36,127.00 273.36,127.00 C271.11,127.00 269.42,126.58 268.30,125.75 C267.47,125.22 266.65,123.32 265.83,120.06 C265.15,117.19 264.81,114.99 264.81,113.48 C264.81,113.48 264.81,86.11 264.81,86.11 C264.81,83.61 264.96,80.20 265.27,75.88 C265.57,71.03 265.75,67.66 265.83,65.77 C265.90,63.87 265.90,61.37 265.83,58.27 C265.75,54.33 265.72,51.79 265.72,50.66 C265.72,44.22 267.82,41.00 272.02,41.00 C273.05,41.00 274.02,41.37 274.92,42.11 C275.83,42.84 276.28,43.71 276.28,44.72 C276.28,46.43 276.09,49.53 275.72,54.03 C278.64,49.34 282.17,47.00 286.30,47.00 C291.85,47.00 296.12,49.24 299.12,53.72 C301.75,57.61 303.06,62.46 303.06,68.30 M293.05,67.66 C293.05,59.89 291.32,56.00 287.88,56.00 C286.38,56.00 284.43,57.40 282.03,60.20 C277.38,65.61 274.82,73.06 274.38,82.55 C275.20,82.98 276.66,84.50 278.77,87.08 C280.41,89.03 282.05,90.00 283.70,90.00 C289.93,90.00 293.05,82.55 293.05,67.66 M350.30,52.80 C349.62,56.56 348.98,60.28 348.39,63.97 C347.64,68.34 347.27,72.06 347.27,75.14 C347.27,75.14 347.27,105.84 347.27,105.84 C347.27,111.41 345.67,115.66 342.48,118.59 C339.30,121.53 334.93,123.00 329.38,123.00 C325.77,123.00 321.80,122.05 317.45,120.14 C312.27,117.93 309.69,115.27 309.69,112.14 C309.69,111.08 310.12,110.18 310.98,109.45 C311.85,108.73 312.80,108.38 313.84,108.38 C314.52,108.38 316.13,109.31 318.69,111.19 C321.24,113.06 324.16,114.00 327.45,114.00 C331.65,114.00 334.46,112.55 335.89,109.64 C336.94,107.65 337.47,104.45 337.47,100.05 C337.47,98.41 337.43,97.06 337.36,96.00 C334.88,97.33 332.10,98.00 329.03,98.00 C323.41,98.00 319.05,95.93 315.98,91.80 C313.21,88.05 311.83,83.26 311.83,77.44 C311.83,76.82 312.20,67.18 312.95,48.50 C315.20,47.50 317.00,47.00 318.34,47.00 C319.84,47.00 322.05,47.93 324.98,49.78 C323.18,54.43 322.28,63.72 322.28,77.66 C322.28,86.55 324.46,91.00 328.81,91.00 C332.04,91.00 334.52,88.27 336.25,82.81 C337.52,78.88 338.16,74.79 338.16,70.55 C338.16,70.55 338.16,56.67 338.16,56.67 C338.16,56.76 338.04,55.51 337.81,52.92 C340.88,51.41 343.17,50.66 344.67,50.66 C346.24,50.66 348.12,51.37 350.30,52.80 M81.92,140.05 C81.92,140.87 81.58,141.92 80.91,143.19 C80.08,144.84 79.60,145.86 79.45,146.23 C77.27,153.07 76.19,158.66 76.19,163.02 C76.19,163.02 75.84,195.33 75.84,195.33 C75.77,198.63 75.02,202.01 73.59,205.47 C71.72,209.82 69.39,212.00 66.62,212.00 C62.50,212.00 58.41,208.56 54.36,201.69 C51.43,196.62 48.47,189.59 45.47,180.62 C43.75,174.80 41.99,168.98 40.19,163.16 C38.61,175.94 37.83,184.51 37.83,188.86 C37.83,198.48 38.41,204.01 39.56,205.44 C40.73,206.87 41.31,207.92 41.31,208.59 C41.31,210.02 40.56,211.28 39.06,212.38 C37.56,213.46 36.06,214.00 34.56,214.00 C32.46,214.00 30.73,211.79 29.39,207.36 C28.34,203.90 27.81,200.75 27.81,197.89 C27.81,196.61 27.85,194.71 27.92,192.20 C27.99,189.68 28.03,187.79 28.03,186.52 C28.03,183.43 28.41,178.85 29.16,172.77 C29.91,166.68 30.28,162.10 30.28,159.02 C30.28,159.02 30.28,145.28 30.28,145.28 C30.28,145.12 30.22,144.90 30.11,144.61 C30.00,144.31 29.95,144.08 29.95,143.92 C29.95,142.42 30.96,141.18 32.98,140.20 C34.64,139.38 36.29,138.97 37.94,138.97 C41.76,138.97 44.50,140.21 46.16,142.69 C46.60,143.52 47.02,145.25 47.39,147.88 C47.62,149.69 47.84,151.53 48.06,153.41 C48.96,158.75 51.32,167.32 55.16,179.12 C59.73,193.04 63.14,200.00 65.39,200.00 C66.21,200.00 66.62,198.95 66.62,196.83 C66.62,196.23 66.53,195.25 66.34,193.89 C66.16,192.53 66.06,191.46 66.06,190.70 C66.06,190.70 67.19,160.00 67.19,160.00 C67.41,155.40 68.20,150.87 69.55,146.41 C71.49,140.14 74.12,137.00 77.42,137.00 C78.47,137.00 79.94,137.68 81.81,139.03 C81.88,139.41 81.92,139.75 81.92,140.05 M126.16,204.23 C126.16,208.15 123.60,211.21 118.50,213.41 C114.53,215.13 110.37,216.00 106.02,216.00 C94.46,216.00 88.69,209.29 88.69,195.86 C88.69,190.33 90.00,184.19 92.62,177.44 C95.85,169.15 99.75,165.00 104.33,165.00 C108.45,165.00 112.89,166.86 117.66,170.56 C122.41,174.26 124.80,178.12 124.80,182.12 C124.80,187.12 122.58,191.09 118.16,194.03 C114.26,196.68 109.61,198.00 104.22,198.00 C103.16,198.00 101.48,197.45 99.16,196.34 C99.46,203.45 101.55,207.00 105.45,207.00 C108.75,207.00 112.00,206.07 115.19,204.20 C118.38,202.34 120.41,201.41 121.31,201.41 C124.54,201.41 126.16,202.35 126.16,204.23 M113.89,182.02 C113.89,180.11 113.34,178.30 112.25,176.58 C111.16,174.86 109.72,174.00 107.92,174.00 C105.45,174.00 103.54,175.11 102.19,177.33 C101.06,179.23 100.50,181.48 100.50,184.08 C100.50,185.53 100.98,186.71 101.95,187.62 C102.93,188.54 104.17,189.00 105.67,189.00 C111.15,189.00 113.89,186.67 113.89,182.02 M188.94,178.61 C188.94,185.41 187.70,192.45 185.22,199.70 C182.00,209.23 177.73,214.00 172.41,214.00 C167.38,214.00 163.21,210.96 159.91,204.89 C157.66,211.63 154.09,215.00 149.22,215.00 C143.00,215.00 138.46,210.71 135.61,202.12 C133.66,196.24 132.69,189.34 132.69,181.44 C132.69,176.47 132.88,172.44 133.25,169.34 C134.30,167.69 135.69,166.86 137.42,166.86 C138.92,166.86 140.44,167.34 141.97,168.31 C143.51,169.28 144.28,170.44 144.28,171.78 C144.28,172.75 144.04,174.19 143.55,176.09 C143.05,177.99 142.81,179.42 142.81,180.39 C142.81,196.80 144.57,205.00 148.09,205.00 C151.77,205.00 154.17,200.45 155.30,191.36 C155.67,187.93 155.86,181.93 155.86,173.36 C155.86,170.53 157.51,169.11 160.81,169.11 C164.49,169.11 166.33,171.16 166.33,175.27 C166.33,175.63 166.27,176.15 166.16,176.83 C166.04,177.50 165.98,177.98 165.98,178.28 C165.98,178.28 165.98,190.91 165.98,190.91 C165.98,200.30 167.71,205.00 171.16,205.00 C174.08,205.00 176.30,201.52 177.80,194.55 C178.92,189.70 179.48,184.96 179.48,180.34 C179.48,176.41 179.30,174.09 178.92,173.41 C178.85,173.26 178.44,172.81 177.69,172.05 C177.24,171.45 177.02,170.88 177.02,170.34 C177.02,168.98 177.61,167.75 178.81,166.66 C180.01,165.55 181.29,165.00 182.64,165.00 C184.66,165.00 186.27,166.81 187.47,170.44 C188.45,173.24 188.94,175.96 188.94,178.61 M269.59,144.12 C268.77,145.55 267.33,147.45 265.27,149.81 C263.20,152.17 261.81,153.98 261.09,155.27 C260.38,156.54 255.87,168.12 247.55,190.00 C240.49,208.67 235.80,218.00 233.48,218.00 C231.46,218.00 229.70,217.44 228.20,216.31 C226.47,215.10 225.61,213.52 225.61,211.56 C225.61,210.36 226.28,208.85 227.62,207.05 C228.98,205.23 230.48,202.03 232.14,197.44 C233.34,193.98 234.54,190.52 235.73,187.05 C231.23,183.43 227.26,177.90 223.81,170.44 C217.81,157.71 214.81,148.75 214.81,143.55 C214.81,139.18 216.76,137.00 220.66,137.00 C225.16,137.00 227.41,139.62 227.41,144.84 C227.41,145.38 227.31,146.19 227.12,147.28 C226.94,148.38 226.84,149.23 226.84,149.84 C226.84,153.02 228.30,158.02 231.23,164.83 C234.30,172.03 237.08,176.16 239.56,177.22 C240.53,175.79 242.66,171.48 245.97,164.28 C249.57,156.32 252.38,150.62 254.41,147.17 C257.78,141.55 260.59,138.73 262.84,138.73 C264.49,138.73 265.97,139.24 267.28,140.25 C268.59,141.26 269.36,142.55 269.59,144.12 M296.16,204.23 C296.16,208.15 293.60,211.21 288.50,213.41 C284.53,215.13 280.37,216.00 276.02,216.00 C264.46,216.00 258.69,209.29 258.69,195.86 C258.69,190.33 260.00,184.19 262.62,177.44 C265.85,169.15 269.75,165.00 274.33,165.00 C278.45,165.00 282.89,166.86 287.66,170.56 C292.41,174.26 294.80,178.12 294.80,182.12 C294.80,187.12 292.58,191.09 288.16,194.03 C284.26,196.68 279.61,198.00 274.22,198.00 C273.16,198.00 271.48,197.45 269.16,196.34 C269.46,203.45 271.55,207.00 275.45,207.00 C278.75,207.00 282.00,206.07 285.19,204.20 C288.38,202.34 290.41,201.41 291.31,201.41 C294.54,201.41 296.16,202.35 296.16,204.23 M283.89,182.02 C283.89,180.11 283.34,178.30 282.25,176.58 C281.16,174.86 279.72,174.00 277.92,174.00 C275.45,174.00 273.54,175.11 272.19,177.33 C271.06,179.23 270.50,181.48 270.50,184.08 C270.50,185.53 270.98,186.71 271.95,187.62 C272.93,188.54 274.17,189.00 275.67,189.00 C281.15,189.00 283.89,186.67 283.89,182.02 M341.20,194.88 C341.20,204.62 340.90,211.48 340.30,215.48 C339.92,217.83 338.35,219.00 335.58,219.00 C331.38,219.00 329.50,216.84 329.95,212.53 C326.20,214.84 322.30,216.00 318.25,216.00 C314.35,216.00 310.64,215.02 307.11,213.06 C302.91,210.73 300.81,207.75 300.81,204.12 C300.81,200.59 303.21,197.27 308.02,194.19 C312.37,191.40 316.46,190.00 320.28,190.00 C320.28,190.00 329.84,190.00 329.84,190.00 C329.84,190.00 329.84,187.20 329.84,187.20 C329.91,179.07 327.59,175.00 322.86,175.00 C316.93,175.00 313.97,177.74 313.97,183.22 C313.97,185.07 312.92,186.00 310.83,186.00 C309.55,186.00 308.21,185.42 306.83,184.25 C305.44,183.07 304.75,181.84 304.75,180.55 C304.75,176.31 306.25,172.82 309.25,170.09 C312.25,167.37 315.85,166.00 320.05,166.00 C334.15,166.00 341.20,175.62 341.20,194.88 M329.84,199.20 C329.84,197.73 328.72,197.00 326.47,197.00 C317.09,197.00 312.41,199.16 312.41,203.48 C312.41,205.83 314.47,207.00 318.59,207.00 C321.14,207.00 323.55,206.30 325.80,204.91 C328.49,203.38 329.84,201.48 329.84,199.20 M379.72,175.20 C379.72,175.73 379.64,176.57 379.50,177.72 C377.91,180.01 376.27,181.16 374.55,181.16 C373.12,181.16 371.84,180.38 370.72,178.81 C370.57,175.61 369.38,174.00 367.12,174.00 C365.77,174.00 364.12,177.50 362.17,184.50 C361.27,187.59 360.83,191.90 360.83,197.42 C360.83,202.65 361.09,205.82 361.61,206.92 C362.21,208.33 362.52,209.29 362.52,209.80 C362.52,211.05 361.93,212.06 360.77,212.84 C359.61,213.62 358.32,214.00 356.89,214.00 C352.84,214.00 350.81,212.14 350.81,208.42 C350.81,208.05 350.91,207.53 351.09,206.86 C351.28,206.18 351.38,205.70 351.38,205.41 C351.38,201.61 351.19,195.96 350.81,188.48 C350.44,181.00 350.25,175.39 350.25,171.67 C350.25,168.32 352.27,166.64 356.33,166.64 C358.72,166.64 360.37,167.36 361.27,168.78 C363.37,166.26 365.73,165.00 368.36,165.00 C370.16,165.00 371.88,165.50 373.53,166.48 C374.66,167.10 375.97,168.42 377.47,170.45 C378.97,172.48 379.72,174.06 379.72,175.20 M429.09,142.72 C429.09,143.25 428.91,143.81 428.53,144.41 C428.01,145.23 427.68,145.76 427.53,145.98 C425.80,150.26 424.52,155.70 423.70,162.30 C423.33,164.62 422.77,170.25 422.02,179.17 C422.02,179.55 421.92,180.28 421.73,181.38 C421.55,182.46 421.45,183.30 421.45,183.89 C421.45,185.85 421.86,188.44 422.69,191.66 C422.24,192.26 421.49,193.09 420.44,194.14 C419.61,194.36 418.71,194.47 417.73,194.47 C416.23,194.47 414.85,194.09 413.58,193.34 C412.45,191.25 411.89,188.55 411.89,185.25 C411.89,181.80 412.58,176.68 413.97,169.89 C415.35,163.10 416.05,157.98 416.05,154.53 C416.05,153.19 415.80,151.15 415.31,148.41 C414.83,145.67 414.59,143.62 414.59,142.27 C414.59,141.52 414.66,140.88 414.81,140.36 C416.69,138.79 418.97,138.00 421.67,138.00 C423.24,138.00 424.82,138.38 426.41,139.12 C428.20,140.09 429.09,141.29 429.09,142.72 M425.84,206.70 C425.84,212.23 422.58,215.00 416.06,215.00 C414.85,215.00 412.56,214.30 409.19,212.92 C408.29,211.32 407.84,209.79 407.84,208.34 C407.84,204.12 410.50,202.00 415.83,202.00 C417.77,202.00 419.77,202.37 421.80,203.09 C424.49,204.04 425.84,205.25 425.84,206.70 M459.09,142.72 C459.09,143.25 458.91,143.81 458.53,144.41 C458.01,145.23 457.68,145.76 457.53,145.98 C455.80,150.26 454.52,155.70 453.70,162.30 C453.33,164.62 452.77,170.25 452.02,179.17 C452.02,179.55 451.92,180.28 451.73,181.38 C451.55,182.46 451.45,183.30 451.45,183.89 C451.45,185.85 451.86,188.44 452.69,191.66 C452.24,192.26 451.49,193.09 450.44,194.14 C449.61,194.36 448.71,194.47 447.73,194.47 C446.23,194.47 444.85,194.09 443.58,193.34 C442.45,191.25 441.89,188.55 441.89,185.25 C441.89,181.80 442.58,176.68 443.97,169.89 C445.35,163.10 446.05,157.98 446.05,154.53 C446.05,153.19 445.80,151.15 445.31,148.41 C444.83,145.67 444.59,143.62 444.59,142.27 C444.59,141.52 444.66,140.88 444.81,140.36 C446.69,138.79 448.97,138.00 451.67,138.00 C453.24,138.00 454.82,138.38 456.41,139.12 C458.20,140.09 459.09,141.29 459.09,142.72 M455.84,206.70 C455.84,212.23 452.58,215.00 446.06,215.00 C444.85,215.00 442.56,214.30 439.19,212.92 C438.29,211.32 437.84,209.79 437.84,208.34 C437.84,204.12 440.50,202.00 445.83,202.00 C447.77,202.00 449.77,202.37 451.80,203.09 C454.49,204.04 455.84,205.25 455.84,206.70 M173.78,271.53 C173.78,275.23 172.99,278.68 171.41,281.89 C169.83,285.10 167.50,288.26 164.42,291.36 C161.35,294.45 158.18,297.26 154.91,299.78 C151.63,302.30 145.20,307.04 135.59,314.00 C135.59,314.00 162.41,314.00 162.41,314.00 C162.41,314.00 158.50,326.00 158.50,326.00 C158.50,326.00 154.00,326.00 154.00,326.00 C154.26,325.49 154.39,324.99 154.39,324.52 C154.39,323.50 153.59,323.00 152.00,323.00 C152.00,323.00 125.20,323.00 125.20,323.00 C125.20,323.00 127.20,316.34 127.20,316.34 C129.61,314.27 131.55,312.56 133.03,311.22 C134.51,309.87 136.41,308.12 138.72,305.98 C141.03,303.84 143.30,301.67 145.53,299.47 C147.76,297.27 149.85,295.12 151.81,293.02 C154.83,289.70 157.35,286.03 159.38,282.03 C161.39,278.03 162.41,274.24 162.41,270.66 C162.41,268.89 162.07,267.25 161.41,265.75 C160.74,264.25 159.74,263.09 158.42,262.25 C157.11,261.42 155.47,261.00 153.52,261.00 C150.62,261.00 148.48,261.70 147.09,263.09 C145.71,264.48 145.02,266.01 145.02,267.69 C145.02,269.59 145.98,271.51 147.91,273.45 C148.16,273.73 148.41,274.00 148.66,274.28 C148.91,274.55 149.03,274.76 149.03,274.89 C149.03,275.23 148.55,275.68 147.61,276.25 C147.61,276.25 144.28,278.17 144.28,278.17 C143.63,278.57 142.97,278.77 142.28,278.77 C141.41,278.77 140.32,277.89 139.03,276.14 C137.75,274.39 137.11,272.42 137.11,270.23 C137.11,268.02 137.80,265.87 139.19,263.80 C140.57,261.73 142.62,260.05 145.34,258.77 C148.06,257.48 151.30,256.84 155.08,256.84 C161.23,256.84 165.89,258.23 169.05,261.00 C172.20,263.77 173.78,267.28 173.78,271.53 M224.52,273.28 C224.52,276.84 223.93,281.52 222.75,287.31 C221.58,293.11 219.79,298.87 217.36,304.59 C214.93,310.32 211.68,315.16 207.61,319.09 C203.55,323.03 198.81,325.00 193.41,325.00 C187.68,325.00 183.88,323.17 182.00,319.52 C180.13,315.85 179.20,311.98 179.20,307.89 C179.20,303.53 180.11,297.71 181.94,290.45 C183.76,283.20 186.48,276.43 190.09,270.16 C191.36,267.99 192.90,265.93 194.70,263.97 C196.50,262.00 198.75,260.32 201.44,258.94 C204.12,257.54 207.18,256.84 210.59,256.84 C213.66,256.84 216.14,257.48 218.05,258.77 C219.95,260.04 221.38,261.63 222.34,263.55 C223.30,265.45 223.90,267.23 224.14,268.86 C224.39,270.48 224.52,271.96 224.52,273.28 M215.38,266.50 C215.38,264.95 214.95,263.65 214.11,262.59 C213.27,261.53 212.06,261.00 210.50,261.00 C208.38,261.00 206.53,261.91 204.94,263.72 C203.34,265.53 202.20,267.23 201.52,268.83 C199.98,272.09 198.11,277.08 195.89,283.80 C193.68,290.51 191.80,296.84 190.23,302.80 C188.67,308.76 187.89,312.67 187.89,314.55 C187.89,315.75 188.23,317.09 188.91,318.59 C189.59,320.09 191.06,320.84 193.31,320.84 C196.93,320.84 199.92,317.91 202.30,312.03 C203.17,309.86 204.39,306.35 205.95,301.52 C207.52,296.68 209.00,291.87 210.42,287.06 C211.84,282.25 213.02,277.93 213.95,274.09 C214.90,270.25 215.38,267.72 215.38,266.50 M273.78,271.53 C273.78,275.23 272.99,278.68 271.41,281.89 C269.83,285.10 267.50,288.26 264.42,291.36 C261.35,294.45 258.18,297.26 254.91,299.78 C251.63,302.30 245.20,307.04 235.59,314.00 C235.59,314.00 262.41,314.00 262.41,314.00 C262.41,314.00 258.50,326.00 258.50,326.00 C258.50,326.00 254.00,326.00 254.00,326.00 C254.26,325.49 254.39,324.99 254.39,324.52 C254.39,323.50 253.59,323.00 252.00,323.00 C252.00,323.00 225.20,323.00 225.20,323.00 C225.20,323.00 227.20,316.34 227.20,316.34 C229.61,314.27 231.55,312.56 233.03,311.22 C234.51,309.87 236.41,308.12 238.72,305.98 C241.03,303.84 243.30,301.67 245.53,299.47 C247.76,297.27 249.85,295.12 251.81,293.02 C254.83,289.70 257.35,286.03 259.38,282.03 C261.39,278.03 262.41,274.24 262.41,270.66 C262.41,268.89 262.07,267.25 261.41,265.75 C260.74,264.25 259.74,263.09 258.42,262.25 C257.11,261.42 255.47,261.00 253.52,261.00 C250.62,261.00 248.48,261.70 247.09,263.09 C245.71,264.48 245.02,266.01 245.02,267.69 C245.02,269.59 245.98,271.51 247.91,273.45 C248.16,273.73 248.41,274.00 248.66,274.28 C248.91,274.55 249.03,274.76 249.03,274.89 C249.03,275.23 248.55,275.68 247.61,276.25 C247.61,276.25 244.28,278.17 244.28,278.17 C243.63,278.57 242.97,278.77 242.28,278.77 C241.41,278.77 240.32,277.89 239.03,276.14 C237.75,274.39 237.11,272.42 237.11,270.23 C237.11,268.02 237.80,265.87 239.19,263.80 C240.57,261.73 242.62,260.05 245.34,258.77 C248.06,257.48 251.30,256.84 255.08,256.84 C261.23,256.84 265.89,258.23 269.05,261.00 C272.20,263.77 273.78,267.28 273.78,271.53 M320.91,256.50 C320.91,256.50 305.08,309.27 305.08,309.27 C304.10,312.60 303.61,314.80 303.61,315.88 C303.61,316.70 303.93,317.34 304.56,317.78 C305.20,318.22 306.04,318.51 307.08,318.64 C308.12,318.78 309.55,318.84 311.38,318.84 C311.38,318.84 310.11,323.00 310.11,323.00 C310.11,323.00 280.91,323.00 280.91,323.00 C280.91,323.00 282.33,318.84 282.33,318.84 C282.33,318.84 285.50,318.84 285.50,318.84 C287.03,318.84 288.17,318.70 288.92,318.42 C289.67,318.14 290.32,317.48 290.88,316.45 C291.43,315.42 292.11,313.59 292.92,310.95 C292.92,310.95 303.61,275.28 303.61,275.28 C304.27,273.01 304.59,271.89 304.59,271.92 C304.98,270.46 305.17,269.44 305.17,268.84 C305.17,267.42 304.47,266.51 303.08,266.11 C301.68,265.70 300.05,265.50 298.19,265.50 C298.19,265.50 294.48,265.50 294.48,265.50 C294.48,265.50 295.80,261.41 295.80,261.41 C300.45,261.00 303.95,260.61 306.30,260.23 C308.64,259.85 310.52,259.40 311.94,258.88 C313.35,258.34 314.91,257.55 316.61,256.50 C316.61,256.50 320.91,256.50 320.91,256.50 " id="パス #3" stroke="black" stroke-width="3" fill="none"><animate attributeName="stroke-dasharray" values="0,120;120,0" begin="0s;animate1.end+5s" id="animate1" dur="2s" fill="freeze" repeatCount="0" attributeType="XML"></animate><animate attributeName="fill" values="white;orange" begin="2s;animate1.end" id="animate2" dur="2s" fill="freeze" repeatCount="0"></animate><animate attributeName="fill" values="orange;white" begin="6s;animate2.end+2s" id="animate3" dur="1s" fill="freeze" repeatCount="0" attributeType="XML"></animate><animate values="white" begin="0s" id="animate4" repeatCount="0" fill="freeze" attributeName="fill" dur="0s"></animate></path></svg>