<?xml version="1.0" encoding="UTF-8" standalone="yes"?>
<!DOCTYPE svg PUBLIC "-//W3C//DTD SVG 20010904//EN" "http://www.w3.org/TR/2001/REC-SVG-20010904/DTD/svg10.dtd">
<svg xmlns="http://www.w3.org/2000/svg" width="5.33333in" height="4in" viewBox="0 0 480 360" style="zoom: 1;"><path d="M145.31,241.00 C145.31,241.00 149.34,241.55 149.34,241.55 C149.34,241.55 152.41,242.58 152.41,242.58 C152.41,242.58 154.61,244.06 154.61,244.06 C154.61,244.06 155.16,244.06 155.16,244.06 C155.16,244.06 156.80,245.23 156.80,245.23 C156.80,245.23 158.72,247.75 158.72,247.75 C158.72,247.75 159.92,250.34 159.92,250.34 C159.92,250.34 161.03,253.02 161.03,253.02 C161.03,253.02 161.14,254.83 161.14,254.83 C161.14,254.83 161.42,255.38 161.42,255.38 C161.42,255.38 161.06,256.78 161.06,256.78 C161.06,256.78 161.33,257.02 161.33,257.02 C161.33,257.02 161.67,260.72 161.67,260.72 C161.67,260.72 161.44,261.89 161.44,261.89 C161.44,261.89 160.84,264.48 160.84,264.48 C160.84,264.48 160.56,264.72 160.56,264.72 C160.56,264.72 160.52,265.34 160.52,265.34 C160.52,265.34 158.58,269.98 158.58,269.98 C158.58,269.98 157.75,270.61 157.75,270.61 C157.75,270.61 157.27,272.19 157.27,272.19 C157.27,272.19 156.00,273.83 156.00,273.83 C156.00,273.83 154.12,276.19 154.12,276.19 C154.12,276.19 154.00,276.81 154.00,276.81 C154.00,276.81 150.17,281.14 150.17,281.14 C150.17,281.14 150.05,281.77 150.05,281.77 C150.05,281.77 147.58,284.36 147.58,284.36 C147.58,284.36 144.66,287.19 144.66,287.19 C144.66,287.19 143.77,288.52 143.77,288.52 C143.77,288.52 139.62,291.66 139.62,291.66 C139.62,291.66 138.41,293.08 138.41,293.08 C138.41,293.08 138.17,293.08 138.17,293.08 C138.17,293.08 136.19,294.41 136.19,294.41 C136.19,294.41 132.66,297.62 132.66,297.62 C132.66,297.62 129.98,299.67 129.98,299.67 C129.98,299.67 127.67,301.80 127.67,301.80 C127.67,301.80 124.53,304.23 124.53,304.23 C124.53,304.23 119.67,307.83 119.67,307.83 C119.67,307.83 116.66,310.80 116.66,310.80 C116.66,310.80 114.48,312.28 114.48,312.28 C114.48,312.28 113.52,313.61 113.52,313.61 C113.52,313.61 112.89,313.61 112.89,313.61 C112.89,313.61 111.66,315.48 111.66,315.48 C111.66,315.48 108.69,318.22 108.69,318.22 C108.69,318.22 106.92,321.19 106.92,321.19 C106.92,321.19 105.33,324.47 105.33,324.47 C105.33,324.47 104.61,325.72 104.61,325.72 C104.61,325.72 104.91,325.80 104.91,325.80 C104.91,325.80 105.19,325.56 105.19,325.56 C105.19,325.56 106.00,325.41 106.00,325.41 C106.00,325.41 106.91,324.78 106.91,324.78 C106.91,324.78 107.39,325.09 107.39,325.09 C107.39,325.09 107.67,324.86 107.67,324.86 C107.67,324.86 111.80,324.55 111.80,324.55 C111.80,324.55 112.17,323.45 112.17,323.45 C112.17,323.45 112.44,322.91 112.44,322.91 C112.44,322.91 113.58,321.50 113.58,321.50 C113.58,321.50 115.66,318.53 115.66,318.53 C115.66,318.53 116.66,317.44 116.66,317.44 C116.66,317.44 117.95,316.42 117.95,316.42 C117.95,316.42 118.17,315.33 118.17,315.33 C118.17,315.33 121.36,312.67 121.36,312.67 C121.36,312.67 122.31,311.42 122.31,311.42 C122.31,311.42 126.89,308.06 126.89,308.06 C126.89,308.06 128.81,306.27 128.81,306.27 C128.81,306.27 129.14,305.41 129.14,305.41 C129.14,305.41 130.94,304.62 130.94,304.62 C130.94,304.62 132.03,303.44 132.03,303.44 C132.03,303.44 134.67,301.56 134.67,301.56 C134.67,301.56 136.33,300.38 136.33,300.38 C136.33,300.38 137.38,299.44 137.38,299.44 C137.38,299.44 137.44,299.12 137.44,299.12 C137.44,299.12 140.05,297.00 140.05,297.00 C140.05,297.00 141.50,295.98 141.50,295.98 C141.50,295.98 145.14,293.39 145.14,293.39 C145.14,293.39 145.38,292.61 145.38,292.61 C145.38,292.61 148.75,289.78 148.75,289.78 C148.75,289.78 150.39,288.59 150.39,288.59 C150.39,288.59 152.17,286.72 152.17,286.72 C152.17,286.72 153.02,286.41 153.02,286.41 C153.02,286.41 153.25,285.69 153.25,285.69 C153.25,285.69 154.50,284.91 154.50,284.91 C154.50,284.91 155.78,283.58 155.78,283.58 C155.78,283.58 157.22,282.23 157.22,282.23 C157.22,282.23 158.14,280.34 158.14,280.34 C158.14,280.34 160.22,278.55 160.22,278.55 C160.22,278.55 162.30,274.78 162.30,274.78 C162.30,274.78 164.09,270.14 164.09,270.14 C164.09,270.14 165.45,268.02 165.45,268.02 C165.45,268.02 165.80,265.91 165.80,265.91 C165.80,265.91 166.89,260.02 166.89,260.02 C166.89,260.02 166.61,259.06 166.61,259.06 C166.61,259.06 166.25,254.67 166.25,254.67 C166.25,254.67 164.67,251.61 164.67,251.61 C164.67,251.61 164.61,250.73 164.61,250.73 C164.61,250.73 163.73,250.03 163.73,250.03 C163.73,250.03 161.48,246.81 161.48,246.81 C161.48,246.81 161.78,246.11 161.78,246.11 C161.78,246.11 163.12,246.42 163.12,246.42 C163.12,246.42 164.75,247.67 164.75,247.67 C164.75,247.67 166.41,249.56 166.41,249.56 C166.41,249.56 167.92,253.72 167.92,253.72 C167.92,253.72 168.59,255.06 168.59,255.06 C168.59,255.06 169.00,259.61 169.00,259.61 C169.00,259.61 168.88,263.78 168.88,263.78 C168.88,263.78 168.61,264.72 168.61,264.72 C168.61,264.72 167.56,269.98 167.56,269.98 C167.56,269.98 166.34,272.89 166.34,272.89 C166.34,272.89 165.00,275.33 165.00,275.33 C165.00,275.33 163.53,278.00 163.53,278.00 C163.53,278.00 162.30,280.27 162.30,280.27 C162.30,280.27 161.91,280.67 161.91,280.67 C161.91,280.67 160.42,282.23 160.42,282.23 C160.42,282.23 158.77,284.28 158.77,284.28 C158.77,284.28 156.66,285.84 156.66,285.84 C156.66,285.84 152.59,289.70 152.59,289.70 C152.59,289.70 151.34,290.88 151.34,290.88 C151.34,290.88 149.67,292.61 149.67,292.61 C149.67,292.61 149.09,292.77 149.09,292.77 C149.09,292.77 143.22,297.95 143.22,297.95 C143.22,297.95 136.69,303.20 136.69,303.20 C136.69,303.20 135.19,304.47 135.19,304.47 C135.19,304.47 132.62,306.73 132.62,306.73 C132.62,306.73 131.45,307.52 131.45,307.52 C131.45,307.52 129.80,309.16 129.80,309.16 C129.80,309.16 128.53,310.02 128.53,310.02 C128.53,310.02 126.97,311.58 126.97,311.58 C126.97,311.58 126.28,311.89 126.28,311.89 C126.28,311.89 122.41,315.25 122.41,315.25 C122.41,315.25 118.75,318.69 118.75,318.69 C118.75,318.69 116.77,321.19 116.77,321.19 C116.77,321.19 116.03,322.12 116.03,322.12 C116.03,322.12 115.16,322.98 115.16,322.98 C115.16,322.98 114.11,324.70 114.11,324.70 C114.11,324.70 117.86,326.27 117.86,326.27 C117.86,326.27 118.25,326.66 118.25,326.66 C118.25,326.66 119.39,326.81 119.39,326.81 C119.39,326.81 121.53,327.83 121.53,327.83 C121.53,327.83 121.77,328.22 121.77,328.22 C121.77,328.22 129.47,329.94 129.47,329.94 C129.47,329.94 130.64,329.94 130.64,329.94 C130.64,329.94 131.33,330.41 131.33,330.41 C131.33,330.41 138.12,330.02 138.12,330.02 C138.12,330.02 141.03,329.55 141.03,329.55 C141.03,329.55 146.25,328.06 146.25,328.06 C146.25,328.06 150.50,324.78 150.50,324.78 C150.50,324.78 152.34,323.38 152.34,323.38 C152.34,323.38 154.94,320.56 154.94,320.56 C154.94,320.56 155.81,319.31 155.81,319.31 C155.81,319.31 158.19,315.25 158.19,315.25 C158.19,315.25 159.30,310.09 159.30,310.09 C159.30,310.09 158.73,307.05 158.73,307.05 C158.73,307.05 156.31,305.48 156.31,305.48 C156.31,305.48 156.38,305.17 156.38,305.17 C156.38,305.17 158.11,304.70 158.11,304.70 C158.11,304.70 159.81,305.56 159.81,305.56 C159.81,305.56 162.45,307.61 162.45,307.61 C162.45,307.61 162.78,308.31 162.78,308.31 C162.78,308.31 163.02,308.31 163.02,308.31 C163.02,308.31 163.39,310.75 163.39,310.75 C163.39,310.75 163.62,310.75 163.62,310.75 C163.62,310.75 164.39,313.97 164.39,313.97 C164.39,313.97 164.11,318.45 164.11,318.45 C164.11,318.45 162.50,322.61 162.50,322.61 C162.50,322.61 160.89,325.20 160.89,325.20 C160.89,325.20 160.36,325.92 160.36,325.92 C160.36,325.92 159.19,326.70 159.19,326.70 C159.19,326.70 158.50,328.19 158.50,328.19 C158.50,328.19 155.14,330.86 155.14,330.86 C155.14,330.86 151.84,332.91 151.84,332.91 C151.84,332.91 147.31,334.88 147.31,334.88 C147.31,334.88 143.86,335.73 143.86,335.73 C143.86,335.73 136.33,335.89 136.33,335.89 C136.33,335.89 133.30,335.03 133.30,335.03 C133.30,335.03 131.72,335.11 131.72,335.11 C131.72,335.11 130.28,334.48 130.28,334.48 C130.28,334.48 129.61,334.33 129.61,334.33 C129.61,334.33 127.02,333.61 127.02,333.61 C127.02,333.61 126.70,333.61 126.70,333.61 C126.70,333.61 126.33,333.14 126.33,333.14 C126.33,333.14 124.72,332.98 124.72,332.98 C124.72,332.98 120.66,331.02 120.66,331.02 C120.66,331.02 118.41,329.38 118.41,329.38 C118.41,329.38 117.56,329.30 117.56,329.30 C117.56,329.30 116.83,328.67 116.83,328.67 C116.83,328.67 116.14,328.98 116.14,328.98 C116.14,328.98 113.33,327.88 113.33,327.88 C113.33,327.88 112.17,327.80 112.17,327.80 C112.17,327.80 111.48,328.83 111.48,328.83 C111.48,328.83 110.55,331.17 110.55,331.17 C110.55,331.17 110.72,331.89 110.72,331.89 C110.72,331.89 109.97,334.48 109.97,334.48 C109.97,334.48 109.05,337.55 109.05,337.55 C109.05,337.55 109.33,340.84 109.33,340.84 C109.33,340.84 108.91,341.00 108.91,341.00 C108.91,341.00 107.92,338.48 107.92,338.48 C107.92,338.48 107.36,336.59 107.36,336.59 C107.36,336.59 107.66,335.50 107.66,335.50 C107.66,335.50 107.22,334.16 107.22,334.16 C107.22,334.16 109.34,327.88 109.34,327.88 C109.34,327.88 106.81,328.42 106.81,328.42 C106.81,328.42 105.20,329.44 105.20,329.44 C105.20,329.44 103.83,329.67 103.83,329.67 C103.83,329.67 102.77,330.30 102.77,330.30 C102.77,330.30 102.47,331.78 102.47,331.78 C102.47,331.78 101.84,332.17 101.84,332.17 C101.84,332.17 100.89,334.98 100.89,334.98 C100.89,334.98 100.75,336.47 100.75,336.47 C100.75,336.47 100.28,336.86 100.28,336.86 C100.28,336.86 100.34,337.33 100.34,337.33 C100.34,337.33 99.48,338.11 99.48,338.11 C99.48,338.11 97.44,337.80 97.44,337.80 C97.44,337.80 96.52,338.11 96.52,338.11 C96.52,338.11 96.27,337.80 96.27,337.80 C96.27,337.80 96.08,337.17 96.08,337.17 C96.08,337.17 95.67,335.69 95.67,335.69 C95.67,335.69 96.30,334.52 96.30,334.52 C96.30,334.52 95.97,334.20 95.97,334.20 C95.97,334.20 96.27,333.11 96.27,333.11 C96.27,333.11 98.50,325.44 98.50,325.44 C98.50,325.44 99.50,324.34 99.50,324.34 C99.50,324.34 99.41,323.25 99.41,323.25 C99.41,323.25 99.69,323.02 99.69,323.02 C99.69,323.02 101.09,319.47 101.09,319.47 C101.09,319.47 102.55,317.67 102.55,317.67 C102.55,317.67 104.59,314.06 104.59,314.06 C104.59,314.06 105.47,312.88 105.47,312.88 C105.47,312.88 106.80,310.92 106.80,310.92 C106.80,310.92 107.67,309.66 107.67,309.66 C107.67,309.66 108.45,308.88 108.45,308.88 C108.45,308.88 109.17,308.02 109.17,308.02 C109.17,308.02 112.09,305.11 112.09,305.11 C112.09,305.11 115.92,301.58 115.92,301.58 C115.92,301.58 118.22,299.45 118.22,299.45 C118.22,299.45 119.62,298.28 119.62,298.28 C119.62,298.28 120.66,297.81 120.66,297.81 C120.66,297.81 124.22,294.52 124.22,294.52 C124.22,294.52 125.47,293.73 125.47,293.73 C125.47,293.73 127.06,292.39 127.06,292.39 C127.06,292.39 128.58,291.06 128.58,291.06 C128.58,291.06 132.86,287.61 132.86,287.61 C132.86,287.61 135.98,284.86 135.98,284.86 C135.98,284.86 136.86,284.39 136.86,284.39 C136.86,284.39 137.41,283.61 137.41,283.61 C137.41,283.61 139.28,282.42 139.28,282.42 C139.28,282.42 139.67,281.64 139.67,281.64 C139.67,281.64 140.38,281.25 140.38,281.25 C140.38,281.25 144.67,277.41 144.67,277.41 C144.67,277.41 147.70,273.16 147.70,273.16 C147.70,273.16 150.73,269.31 150.73,269.31 C150.73,269.31 153.14,264.69 153.14,264.69 C153.14,264.69 156.38,256.36 156.38,256.36 C156.38,256.36 156.33,251.50 156.33,251.50 C156.33,251.50 155.55,249.53 155.55,249.53 C155.55,249.53 154.36,247.66 154.36,247.66 C154.36,247.66 152.48,245.77 152.48,245.77 C152.48,245.77 151.55,245.38 151.55,245.38 C151.55,245.38 147.36,244.05 147.36,244.05 C147.36,244.05 142.33,243.81 142.33,243.81 C142.33,243.81 141.09,244.12 141.09,244.12 C141.09,244.12 139.19,243.89 139.19,243.89 C139.19,243.89 135.62,245.30 135.62,245.30 C135.62,245.30 131.72,246.47 131.72,246.47 C131.72,246.47 130.27,247.42 130.27,247.42 C130.27,247.42 126.77,249.69 126.77,249.69 C126.77,249.69 124.78,251.81 124.78,251.81 C124.78,251.81 123.89,252.36 123.89,252.36 C123.89,252.36 119.44,257.08 119.44,257.08 C119.44,257.08 117.31,259.50 117.31,259.50 C117.31,259.50 113.83,266.72 113.83,266.72 C113.83,266.72 113.03,271.52 113.03,271.52 C113.03,271.52 113.12,274.97 113.12,274.97 C113.12,274.97 115.16,277.72 115.16,277.72 C115.16,277.72 115.81,277.95 115.81,277.95 C115.81,277.95 116.41,278.50 116.41,278.50 C116.41,278.50 116.98,278.34 116.98,278.34 C116.98,278.34 119.89,279.05 119.89,279.05 C119.89,279.05 123.09,277.88 123.09,277.88 C123.09,277.88 124.91,277.02 124.91,277.02 C124.91,277.02 128.34,274.27 128.34,274.27 C128.34,274.27 129.92,272.61 129.92,272.61 C129.92,272.61 131.38,268.84 131.38,268.84 C131.38,268.84 131.55,268.38 131.55,268.38 C131.55,268.38 131.52,267.36 131.52,267.36 C131.52,267.36 131.05,266.17 131.05,266.17 C131.05,266.17 129.56,264.61 129.56,264.61 C129.56,264.61 129.59,264.45 129.59,264.45 C129.59,264.45 130.25,263.91 130.25,263.91 C130.25,263.91 133.11,264.45 133.11,264.45 C133.11,264.45 134.67,265.62 134.67,265.62 C134.67,265.62 136.14,268.84 136.14,268.84 C136.14,268.84 136.17,272.22 136.17,272.22 C136.17,272.22 134.86,275.28 134.86,275.28 C134.86,275.28 133.62,276.78 133.62,276.78 C133.62,276.78 133.06,276.86 133.06,276.86 C133.06,276.86 131.45,279.05 131.45,279.05 C131.45,279.05 130.38,279.36 130.38,279.36 C130.38,279.36 129.03,280.94 129.03,280.94 C129.03,280.94 128.22,281.48 128.22,281.48 C128.22,281.48 123.33,282.89 123.33,282.89 C123.33,282.89 120.08,283.12 120.08,283.12 C120.08,283.12 117.58,282.73 117.58,282.73 C117.58,282.73 117.33,282.42 117.33,282.42 C117.33,282.42 116.98,282.58 116.98,282.58 C116.98,282.58 115.28,282.11 115.28,282.11 C115.28,282.11 112.55,279.83 112.55,279.83 C112.55,279.83 112.00,279.44 112.00,279.44 C112.00,279.44 110.81,276.38 110.81,276.38 C110.81,276.38 110.33,275.67 110.33,275.67 C110.33,275.67 109.94,273.31 109.94,273.31 C109.94,273.31 110.23,272.61 110.23,272.61 C110.23,272.61 110.48,271.36 110.48,271.36 C110.48,271.36 110.08,270.66 110.08,270.66 C110.08,270.66 111.77,263.75 111.77,263.75 C111.77,263.75 114.69,258.17 114.69,258.17 C114.69,258.17 115.61,256.67 115.61,256.67 C115.61,256.67 117.34,254.64 117.34,254.64 C117.34,254.64 118.58,252.75 118.58,252.75 C118.58,252.75 120.17,251.42 120.17,251.42 C120.17,251.42 124.11,247.34 124.11,247.34 C124.11,247.34 126.03,246.39 126.03,246.39 C126.03,246.39 130.12,244.28 130.12,244.28 C130.12,244.28 130.88,243.64 130.88,243.64 C130.88,243.64 135.50,242.00 135.50,242.00 C135.50,242.00 136.92,241.09 136.92,241.09 C136.92,241.09 139.45,241.00 139.45,241.00 C139.45,241.00 145.31,241.00 145.31,241.00 M217.61,236.00 C217.61,236.00 221.44,237.16 221.44,237.16 C221.44,237.16 222.17,237.00 222.17,237.00 C222.17,237.00 224.23,237.23 224.23,237.23 C224.23,237.23 225.53,237.00 225.53,237.00 C225.53,237.00 226.98,237.89 226.98,237.89 C226.98,237.89 230.52,239.41 230.52,239.41 C230.52,239.41 231.73,239.95 231.73,239.95 C231.73,239.95 232.09,241.25 232.09,241.25 C232.09,241.25 231.02,240.78 231.02,240.78 C231.02,240.78 226.97,239.92 226.97,239.92 C226.97,239.92 222.78,240.16 222.78,240.16 C222.78,240.16 219.84,240.78 219.84,240.78 C219.84,240.78 214.14,242.73 214.14,242.73 C214.14,242.73 210.59,244.86 210.59,244.86 C210.59,244.86 210.17,245.41 210.17,245.41 C210.17,245.41 207.31,247.59 207.31,247.59 C207.31,247.59 203.50,251.83 203.50,251.83 C203.50,251.83 202.48,253.41 202.48,253.41 C202.48,253.41 200.25,255.59 200.25,255.59 C200.25,255.59 198.92,257.95 198.92,257.95 C198.92,257.95 198.67,259.59 198.67,259.59 C198.67,259.59 197.97,260.38 197.97,260.38 C197.97,260.38 196.22,262.09 196.22,262.09 C196.22,262.09 196.69,262.81 196.69,262.81 C196.69,262.81 195.78,264.22 195.78,264.22 C195.78,264.22 193.78,269.16 193.78,269.16 C193.78,269.16 193.17,269.86 193.17,269.86 C193.17,269.86 191.69,276.12 191.69,276.12 C191.69,276.12 190.83,280.44 190.83,280.44 C190.83,280.44 190.42,282.09 190.42,282.09 C190.42,282.09 189.70,286.41 189.70,286.41 C189.70,286.41 189.06,291.58 189.06,291.58 C189.06,291.58 189.30,295.11 189.30,295.11 C189.30,295.11 189.00,300.91 189.00,300.91 C189.00,300.91 189.42,301.14 189.42,301.14 C189.42,301.14 189.42,306.23 189.42,306.23 C189.42,306.23 190.12,309.69 190.12,309.69 C190.12,309.69 190.33,310.23 190.33,310.23 C190.33,310.23 190.16,311.09 190.16,311.09 C190.16,311.09 190.70,315.80 190.70,315.80 C190.70,315.80 191.14,316.34 191.14,316.34 C191.14,316.34 191.81,318.08 191.81,318.08 C191.81,318.08 192.97,322.06 192.97,322.06 C192.97,322.06 193.80,323.02 193.80,323.02 C193.80,323.02 193.48,323.80 193.48,323.80 C193.48,323.80 195.50,327.41 195.50,327.41 C195.50,327.41 198.33,330.84 198.33,330.84 C198.33,330.84 203.77,334.06 203.77,334.06 C203.77,334.06 210.56,334.45 210.56,334.45 C210.56,334.45 213.81,333.83 213.81,333.83 C213.81,333.83 219.89,330.84 219.89,330.84 C219.89,330.84 223.14,328.27 223.14,328.27 C223.14,328.27 226.31,325.28 226.31,325.28 C226.31,325.28 231.88,318.16 231.88,318.16 C231.88,318.16 233.86,314.47 233.86,314.47 C233.86,314.47 235.50,310.94 235.50,310.94 C235.50,310.94 235.48,310.23 235.48,310.23 C235.48,310.23 236.50,308.73 236.50,308.73 C236.50,308.73 236.81,307.56 236.81,307.56 C236.81,307.56 237.61,305.92 237.61,305.92 C237.61,305.92 238.83,302.55 238.83,302.55 C238.83,302.55 239.06,301.38 239.06,301.38 C239.06,301.38 240.92,295.97 240.92,295.97 C240.92,295.97 241.91,291.81 241.91,291.81 C241.91,291.81 242.45,288.28 242.45,288.28 C242.45,288.28 243.52,278.33 243.52,278.33 C243.52,278.33 243.66,272.53 243.66,272.53 C243.66,272.53 243.16,271.11 243.16,271.11 C243.16,271.11 242.91,269.62 242.91,269.62 C242.91,269.62 243.06,267.67 243.06,267.67 C243.06,267.67 242.70,267.12 242.70,267.12 C242.70,267.12 241.67,262.89 241.67,262.89 C241.67,262.89 241.33,260.38 241.33,260.38 C241.33,260.38 240.53,259.28 240.53,259.28 C240.53,259.28 240.25,258.34 240.25,258.34 C240.25,258.34 238.86,255.52 238.86,255.52 C238.86,255.52 236.81,252.45 236.81,252.45 C236.81,252.45 235.59,250.73 235.59,250.73 C235.59,250.73 233.27,249.09 233.27,249.09 C233.27,249.09 231.80,247.83 231.80,247.83 C231.80,247.83 229.19,247.20 229.19,247.20 C229.19,247.20 228.83,246.66 228.83,246.66 C228.83,246.66 227.66,246.66 227.66,246.66 C227.66,246.66 227.45,246.11 227.45,246.11 C227.45,246.11 230.59,245.25 230.59,245.25 C230.59,245.25 234.97,245.25 234.97,245.25 C234.97,245.25 235.78,245.48 235.78,245.48 C235.78,245.48 240.84,245.95 240.84,245.95 C240.84,245.95 241.58,245.80 241.58,245.80 C241.58,245.80 243.23,247.28 243.23,247.28 C243.23,247.28 243.36,247.83 243.36,247.83 C243.36,247.83 244.22,247.83 244.22,247.83 C244.22,247.83 245.36,249.17 245.36,249.17 C245.36,249.17 246.30,249.56 246.30,249.56 C246.30,249.56 248.52,254.11 248.52,254.11 C248.52,254.11 249.67,258.11 249.67,258.11 C249.67,258.11 249.83,259.67 249.83,259.67 C249.83,259.67 250.25,261.08 250.25,261.08 C250.25,261.08 250.83,267.52 250.83,267.52 C250.83,267.52 251.17,268.92 251.17,268.92 C251.17,268.92 251.02,272.06 251.02,272.06 C251.02,272.06 251.25,272.45 251.25,272.45 C251.25,272.45 250.83,278.48 250.83,278.48 C250.83,278.48 248.98,287.27 248.98,287.27 C248.98,287.27 247.88,293.22 247.88,293.22 C247.88,293.22 246.09,297.84 246.09,297.84 C246.09,297.84 245.84,298.31 245.84,298.31 C245.84,298.31 244.69,301.77 244.69,301.77 C244.69,301.77 241.70,309.22 241.70,309.22 C241.70,309.22 240.22,310.78 240.22,310.78 C240.22,310.78 238.86,313.28 238.86,313.28 C238.86,313.28 237.75,315.72 237.75,315.72 C237.75,315.72 233.84,320.81 233.84,320.81 C233.84,320.81 230.89,324.27 230.89,324.27 C230.89,324.27 229.17,326.22 229.17,326.22 C229.17,326.22 223.89,330.77 223.89,330.77 C223.89,330.77 219.05,334.22 219.05,334.22 C219.05,334.22 212.03,337.67 212.03,337.67 C212.03,337.67 208.48,338.61 208.48,338.61 C208.48,338.61 205.44,339.00 205.44,339.00 C205.44,339.00 201.88,338.45 201.88,338.45 C201.88,338.45 196.47,337.36 196.47,337.36 C196.47,337.36 193.80,335.86 193.80,335.86 C193.80,335.86 191.62,335.00 191.62,335.00 C191.62,335.00 190.64,333.67 190.64,333.67 C190.64,333.67 188.70,332.81 188.70,332.81 C188.70,332.81 187.38,331.31 187.38,331.31 C187.38,331.31 184.97,328.50 184.97,328.50 C184.97,328.50 181.88,321.67 181.88,321.67 C181.88,321.67 181.27,319.64 181.27,319.64 C181.27,319.64 180.42,317.59 180.42,317.59 C180.42,317.59 178.86,309.77 178.86,309.77 C178.86,309.77 177.94,303.48 177.94,303.48 C177.94,303.48 177.80,301.45 177.80,301.45 C177.80,301.45 178.09,299.17 178.09,299.17 C178.09,299.17 177.83,295.42 177.83,295.42 C177.83,295.42 178.33,293.69 178.33,293.69 C178.33,293.69 177.70,291.34 177.70,291.34 C177.70,291.34 178.23,291.03 178.23,291.03 C178.23,291.03 178.45,289.53 178.45,289.53 C178.45,289.53 178.41,287.42 178.41,287.42 C178.41,287.42 179.22,283.42 179.22,283.42 C179.22,283.42 180.42,278.17 180.42,278.17 C180.42,278.17 181.02,275.98 181.02,275.98 C181.02,275.98 182.70,271.44 182.70,271.44 C182.70,271.44 183.88,268.69 183.88,268.69 C183.88,268.69 185.42,265.62 185.42,265.62 C185.42,265.62 185.91,263.98 185.91,263.98 C185.91,263.98 187.25,261.95 187.25,261.95 C187.25,261.95 187.92,260.22 187.92,260.22 C187.92,260.22 189.95,256.69 189.95,256.69 C189.95,256.69 191.31,254.97 191.31,254.97 C191.31,254.97 191.47,254.19 191.47,254.19 C191.47,254.19 192.42,252.94 192.42,252.94 C192.42,252.94 197.27,247.44 197.27,247.44 C197.27,247.44 199.33,245.72 199.33,245.72 C199.33,245.72 201.78,243.61 201.78,243.61 C201.78,243.61 202.77,242.58 202.77,242.58 C202.77,242.58 204.86,241.09 204.86,241.09 C204.86,241.09 206.67,240.23 206.67,240.23 C206.67,240.23 211.28,237.95 211.28,237.95 C211.28,237.95 217.61,236.00 217.61,236.00 M213.45,266.91 C213.45,266.91 217.09,272.14 217.09,272.14 C217.09,272.14 220.31,275.58 220.31,275.58 C220.31,275.58 224.14,274.41 224.14,274.41 C224.14,274.41 228.12,273.23 228.12,273.23 C228.12,273.23 231.48,272.06 231.48,272.06 C231.48,272.06 232.55,272.22 232.55,272.22 C232.55,272.22 229.30,279.88 229.30,279.88 C229.30,279.88 226.62,283.86 226.62,283.86 C226.62,283.86 226.23,284.64 226.23,284.64 C226.23,284.64 228.11,287.38 228.11,287.38 C228.11,287.38 229.25,288.31 229.25,288.31 C229.25,288.31 230.00,289.25 230.00,289.25 C230.00,289.25 231.27,291.52 231.27,291.52 C231.27,291.52 233.33,293.31 233.33,293.31 C233.33,293.31 233.11,294.02 233.11,294.02 C233.11,294.02 230.33,295.42 230.33,295.42 C230.33,295.42 227.28,295.42 227.28,295.42 C227.28,295.42 220.53,295.19 220.53,295.19 C220.53,295.19 217.42,299.02 217.42,299.02 C217.42,299.02 215.42,301.59 215.42,301.59 C215.42,301.59 214.39,302.45 214.39,302.45 C214.39,302.45 208.73,305.73 208.73,305.73 C208.73,305.73 208.23,303.55 208.23,303.55 C208.23,303.55 207.77,297.69 207.77,297.69 C207.77,297.69 207.20,296.59 207.20,296.59 C207.20,296.59 207.03,293.55 207.03,293.55 C207.03,293.55 206.98,292.61 206.98,292.61 C206.98,292.61 204.12,292.45 204.12,292.45 C204.12,292.45 202.62,292.14 202.62,292.14 C202.62,292.14 196.81,290.73 196.81,290.73 C196.81,290.73 195.75,289.41 195.75,289.41 C195.75,289.41 197.34,287.69 197.34,287.69 C197.34,287.69 201.11,284.88 201.11,284.88 C201.11,284.88 204.09,283.23 204.09,283.23 C204.09,283.23 208.55,280.50 208.55,280.50 C208.55,280.50 208.94,279.72 208.94,279.72 C208.94,279.72 209.16,277.06 209.16,277.06 C209.16,277.06 209.56,276.20 209.56,276.20 C209.56,276.20 209.92,272.45 209.92,272.45 C209.92,272.45 210.27,269.17 210.27,269.17 C210.27,269.17 211.41,268.16 211.41,268.16 C211.41,268.16 211.92,267.53 211.92,267.53 C211.92,267.53 212.56,267.06 212.56,267.06 C212.56,267.06 213.45,266.91 213.45,266.91 M213.45,273.17 C213.45,273.17 213.31,274.27 213.31,274.27 C213.31,274.27 211.84,280.45 211.84,280.45 C211.84,280.45 211.62,281.55 211.62,281.55 C211.62,281.55 212.03,282.25 212.03,282.25 C212.03,282.25 208.25,283.97 208.25,283.97 C208.25,283.97 203.83,286.48 203.83,286.48 C203.83,286.48 202.81,286.88 202.81,286.88 C202.81,286.88 203.38,287.58 203.38,287.58 C203.38,287.58 207.12,288.36 207.12,288.36 C207.12,288.36 210.27,289.47 210.27,289.47 C210.27,289.47 211.30,289.78 211.30,289.78 C211.30,289.78 210.92,294.41 210.92,294.41 C210.92,294.41 211.17,294.72 211.17,294.72 C211.17,294.72 211.72,297.06 211.72,297.06 C211.72,297.06 211.72,299.03 211.72,299.03 C211.72,299.03 212.88,300.28 212.88,300.28 C212.88,300.28 215.81,296.12 215.81,296.12 C215.81,296.12 216.88,293.92 216.88,293.92 C216.88,293.92 217.39,293.30 217.39,293.30 C217.39,293.30 217.88,292.44 217.88,292.44 C217.88,292.44 219.30,291.19 219.30,291.19 C219.30,291.19 220.59,290.95 220.59,290.95 C220.59,290.95 223.94,291.81 223.94,291.81 C223.94,291.81 226.89,291.89 226.89,291.89 C226.89,291.89 225.33,289.55 225.33,289.55 C225.33,289.55 224.69,288.05 224.69,288.05 C224.69,288.05 223.78,287.11 223.78,287.11 C223.78,287.11 223.12,286.88 223.12,286.88 C223.12,286.88 222.48,285.00 222.48,285.00 C222.48,285.00 221.98,284.38 221.98,284.38 C221.98,284.38 222.70,283.58 222.70,283.58 C222.70,283.58 225.70,279.91 225.70,279.91 C225.70,279.91 227.44,276.69 227.44,276.69 C227.44,276.69 227.31,276.53 227.31,276.53 C227.31,276.53 222.22,277.78 222.22,277.78 C222.22,277.78 221.52,277.78 221.52,277.78 C221.52,277.78 217.81,278.72 217.81,278.72 C217.81,278.72 216.97,277.08 216.97,277.08 C216.97,277.08 214.81,274.19 214.81,274.19 C214.81,274.19 213.88,273.02 213.88,273.02 C213.88,273.02 213.45,273.17 213.45,273.17 M296.31,241.00 C296.31,241.00 300.34,241.55 300.34,241.55 C300.34,241.55 303.41,242.58 303.41,242.58 C303.41,242.58 305.61,244.06 305.61,244.06 C305.61,244.06 306.16,244.06 306.16,244.06 C306.16,244.06 307.80,245.23 307.80,245.23 C307.80,245.23 309.72,247.75 309.72,247.75 C309.72,247.75 310.92,250.34 310.92,250.34 C310.92,250.34 312.03,253.02 312.03,253.02 C312.03,253.02 312.14,254.83 312.14,254.83 C312.14,254.83 312.42,255.38 312.42,255.38 C312.42,255.38 312.06,256.78 312.06,256.78 C312.06,256.78 312.33,257.02 312.33,257.02 C312.33,257.02 312.67,260.72 312.67,260.72 C312.67,260.72 312.44,261.89 312.44,261.89 C312.44,261.89 311.84,264.48 311.84,264.48 C311.84,264.48 311.56,264.72 311.56,264.72 C311.56,264.72 311.52,265.34 311.52,265.34 C311.52,265.34 309.58,269.98 309.58,269.98 C309.58,269.98 308.75,270.61 308.75,270.61 C308.75,270.61 308.27,272.19 308.27,272.19 C308.27,272.19 307.00,273.83 307.00,273.83 C307.00,273.83 305.12,276.19 305.12,276.19 C305.12,276.19 305.00,276.81 305.00,276.81 C305.00,276.81 301.17,281.14 301.17,281.14 C301.17,281.14 301.05,281.77 301.05,281.77 C301.05,281.77 298.58,284.36 298.58,284.36 C298.58,284.36 295.66,287.19 295.66,287.19 C295.66,287.19 294.77,288.52 294.77,288.52 C294.77,288.52 290.62,291.66 290.62,291.66 C290.62,291.66 289.41,293.08 289.41,293.08 C289.41,293.08 289.17,293.08 289.17,293.08 C289.17,293.08 287.19,294.41 287.19,294.41 C287.19,294.41 283.66,297.62 283.66,297.62 C283.66,297.62 280.98,299.67 280.98,299.67 C280.98,299.67 278.67,301.80 278.67,301.80 C278.67,301.80 275.53,304.23 275.53,304.23 C275.53,304.23 270.67,307.83 270.67,307.83 C270.67,307.83 267.66,310.80 267.66,310.80 C267.66,310.80 265.48,312.28 265.48,312.28 C265.48,312.28 264.52,313.61 264.52,313.61 C264.52,313.61 263.89,313.61 263.89,313.61 C263.89,313.61 262.66,315.48 262.66,315.48 C262.66,315.48 259.69,318.22 259.69,318.22 C259.69,318.22 257.92,321.19 257.92,321.19 C257.92,321.19 256.33,324.47 256.33,324.47 C256.33,324.47 255.61,325.72 255.61,325.72 C255.61,325.72 255.91,325.80 255.91,325.80 C255.91,325.80 256.19,325.56 256.19,325.56 C256.19,325.56 257.00,325.41 257.00,325.41 C257.00,325.41 257.91,324.78 257.91,324.78 C257.91,324.78 258.39,325.09 258.39,325.09 C258.39,325.09 258.67,324.86 258.67,324.86 C258.67,324.86 262.80,324.55 262.80,324.55 C262.80,324.55 263.17,323.45 263.17,323.45 C263.17,323.45 263.44,322.91 263.44,322.91 C263.44,322.91 264.58,321.50 264.58,321.50 C264.58,321.50 266.66,318.53 266.66,318.53 C266.66,318.53 267.66,317.44 267.66,317.44 C267.66,317.44 268.95,316.42 268.95,316.42 C268.95,316.42 269.17,315.33 269.17,315.33 C269.17,315.33 272.36,312.67 272.36,312.67 C272.36,312.67 273.31,311.42 273.31,311.42 C273.31,311.42 277.89,308.06 277.89,308.06 C277.89,308.06 279.81,306.27 279.81,306.27 C279.81,306.27 280.14,305.41 280.14,305.41 C280.14,305.41 281.94,304.62 281.94,304.62 C281.94,304.62 283.03,303.44 283.03,303.44 C283.03,303.44 285.67,301.56 285.67,301.56 C285.67,301.56 287.33,300.38 287.33,300.38 C287.33,300.38 288.38,299.44 288.38,299.44 C288.38,299.44 288.44,299.12 288.44,299.12 C288.44,299.12 291.05,297.00 291.05,297.00 C291.05,297.00 292.50,295.98 292.50,295.98 C292.50,295.98 296.14,293.39 296.14,293.39 C296.14,293.39 296.38,292.61 296.38,292.61 C296.38,292.61 299.75,289.78 299.75,289.78 C299.75,289.78 301.39,288.59 301.39,288.59 C301.39,288.59 303.17,286.72 303.17,286.72 C303.17,286.72 304.02,286.41 304.02,286.41 C304.02,286.41 304.25,285.69 304.25,285.69 C304.25,285.69 305.50,284.91 305.50,284.91 C305.50,284.91 306.78,283.58 306.78,283.58 C306.78,283.58 308.22,282.23 308.22,282.23 C308.22,282.23 309.14,280.34 309.14,280.34 C309.14,280.34 311.22,278.55 311.22,278.55 C311.22,278.55 313.30,274.78 313.30,274.78 C313.30,274.78 315.09,270.14 315.09,270.14 C315.09,270.14 316.45,268.02 316.45,268.02 C316.45,268.02 316.80,265.91 316.80,265.91 C316.80,265.91 317.89,260.02 317.89,260.02 C317.89,260.02 317.61,259.06 317.61,259.06 C317.61,259.06 317.25,254.67 317.25,254.67 C317.25,254.67 315.67,251.61 315.67,251.61 C315.67,251.61 315.61,250.73 315.61,250.73 C315.61,250.73 314.73,250.03 314.73,250.03 C314.73,250.03 312.48,246.81 312.48,246.81 C312.48,246.81 312.78,246.11 312.78,246.11 C312.78,246.11 314.12,246.42 314.12,246.42 C314.12,246.42 315.75,247.67 315.75,247.67 C315.75,247.67 317.41,249.56 317.41,249.56 C317.41,249.56 318.92,253.72 318.92,253.72 C318.92,253.72 319.59,255.06 319.59,255.06 C319.59,255.06 320.00,259.61 320.00,259.61 C320.00,259.61 319.88,263.78 319.88,263.78 C319.88,263.78 319.61,264.72 319.61,264.72 C319.61,264.72 318.56,269.98 318.56,269.98 C318.56,269.98 317.34,272.89 317.34,272.89 C317.34,272.89 316.00,275.33 316.00,275.33 C316.00,275.33 314.53,278.00 314.53,278.00 C314.53,278.00 313.30,280.27 313.30,280.27 C313.30,280.27 312.91,280.67 312.91,280.67 C312.91,280.67 311.42,282.23 311.42,282.23 C311.42,282.23 309.77,284.28 309.77,284.28 C309.77,284.28 307.66,285.84 307.66,285.84 C307.66,285.84 303.59,289.70 303.59,289.70 C303.59,289.70 302.34,290.88 302.34,290.88 C302.34,290.88 300.67,292.61 300.67,292.61 C300.67,292.61 300.09,292.77 300.09,292.77 C300.09,292.77 294.22,297.95 294.22,297.95 C294.22,297.95 287.69,303.20 287.69,303.20 C287.69,303.20 286.19,304.47 286.19,304.47 C286.19,304.47 283.62,306.73 283.62,306.73 C283.62,306.73 282.45,307.52 282.45,307.52 C282.45,307.52 280.80,309.16 280.80,309.16 C280.80,309.16 279.53,310.02 279.53,310.02 C279.53,310.02 277.97,311.58 277.97,311.58 C277.97,311.58 277.28,311.89 277.28,311.89 C277.28,311.89 273.41,315.25 273.41,315.25 C273.41,315.25 269.75,318.69 269.75,318.69 C269.75,318.69 267.77,321.19 267.77,321.19 C267.77,321.19 267.03,322.12 267.03,322.12 C267.03,322.12 266.16,322.98 266.16,322.98 C266.16,322.98 265.11,324.70 265.11,324.70 C265.11,324.70 268.86,326.27 268.86,326.27 C268.86,326.27 269.25,326.66 269.25,326.66 C269.25,326.66 270.39,326.81 270.39,326.81 C270.39,326.81 272.53,327.83 272.53,327.83 C272.53,327.83 272.77,328.22 272.77,328.22 C272.77,328.22 280.47,329.94 280.47,329.94 C280.47,329.94 281.64,329.94 281.64,329.94 C281.64,329.94 282.33,330.41 282.33,330.41 C282.33,330.41 289.12,330.02 289.12,330.02 C289.12,330.02 292.03,329.55 292.03,329.55 C292.03,329.55 297.25,328.06 297.25,328.06 C297.25,328.06 301.50,324.78 301.50,324.78 C301.50,324.78 303.34,323.38 303.34,323.38 C303.34,323.38 305.94,320.56 305.94,320.56 C305.94,320.56 306.81,319.31 306.81,319.31 C306.81,319.31 309.19,315.25 309.19,315.25 C309.19,315.25 310.30,310.09 310.30,310.09 C310.30,310.09 309.73,307.05 309.73,307.05 C309.73,307.05 307.31,305.48 307.31,305.48 C307.31,305.48 307.38,305.17 307.38,305.17 C307.38,305.17 309.11,304.70 309.11,304.70 C309.11,304.70 310.81,305.56 310.81,305.56 C310.81,305.56 313.45,307.61 313.45,307.61 C313.45,307.61 313.78,308.31 313.78,308.31 C313.78,308.31 314.02,308.31 314.02,308.31 C314.02,308.31 314.39,310.75 314.39,310.75 C314.39,310.75 314.62,310.75 314.62,310.75 C314.62,310.75 315.39,313.97 315.39,313.97 C315.39,313.97 315.11,318.45 315.11,318.45 C315.11,318.45 313.50,322.61 313.50,322.61 C313.50,322.61 311.89,325.20 311.89,325.20 C311.89,325.20 311.36,325.92 311.36,325.92 C311.36,325.92 310.19,326.70 310.19,326.70 C310.19,326.70 309.50,328.19 309.50,328.19 C309.50,328.19 306.14,330.86 306.14,330.86 C306.14,330.86 302.84,332.91 302.84,332.91 C302.84,332.91 298.31,334.88 298.31,334.88 C298.31,334.88 294.86,335.73 294.86,335.73 C294.86,335.73 287.33,335.89 287.33,335.89 C287.33,335.89 284.30,335.03 284.30,335.03 C284.30,335.03 282.72,335.11 282.72,335.11 C282.72,335.11 281.28,334.48 281.28,334.48 C281.28,334.48 280.61,334.33 280.61,334.33 C280.61,334.33 278.02,333.61 278.02,333.61 C278.02,333.61 277.70,333.61 277.70,333.61 C277.70,333.61 277.33,333.14 277.33,333.14 C277.33,333.14 275.72,332.98 275.72,332.98 C275.72,332.98 271.66,331.02 271.66,331.02 C271.66,331.02 269.41,329.38 269.41,329.38 C269.41,329.38 268.56,329.30 268.56,329.30 C268.56,329.30 267.83,328.67 267.83,328.67 C267.83,328.67 267.14,328.98 267.14,328.98 C267.14,328.98 264.33,327.88 264.33,327.88 C264.33,327.88 263.17,327.80 263.17,327.80 C263.17,327.80 262.48,328.83 262.48,328.83 C262.48,328.83 261.55,331.17 261.55,331.17 C261.55,331.17 261.72,331.89 261.72,331.89 C261.72,331.89 260.97,334.48 260.97,334.48 C260.97,334.48 260.05,337.55 260.05,337.55 C260.05,337.55 260.33,340.84 260.33,340.84 C260.33,340.84 259.91,341.00 259.91,341.00 C259.91,341.00 258.92,338.48 258.92,338.48 C258.92,338.48 258.36,336.59 258.36,336.59 C258.36,336.59 258.66,335.50 258.66,335.50 C258.66,335.50 258.22,334.16 258.22,334.16 C258.22,334.16 260.34,327.88 260.34,327.88 C260.34,327.88 257.81,328.42 257.81,328.42 C257.81,328.42 256.20,329.44 256.20,329.44 C256.20,329.44 254.83,329.67 254.83,329.67 C254.83,329.67 253.77,330.30 253.77,330.30 C253.77,330.30 253.47,331.78 253.47,331.78 C253.47,331.78 252.84,332.17 252.84,332.17 C252.84,332.17 251.89,334.98 251.89,334.98 C251.89,334.98 251.75,336.47 251.75,336.47 C251.75,336.47 251.28,336.86 251.28,336.86 C251.28,336.86 251.34,337.33 251.34,337.33 C251.34,337.33 250.48,338.11 250.48,338.11 C250.48,338.11 248.44,337.80 248.44,337.80 C248.44,337.80 247.52,338.11 247.52,338.11 C247.52,338.11 247.27,337.80 247.27,337.80 C247.27,337.80 247.08,337.17 247.08,337.17 C247.08,337.17 246.67,335.69 246.67,335.69 C246.67,335.69 247.30,334.52 247.30,334.52 C247.30,334.52 246.97,334.20 246.97,334.20 C246.97,334.20 247.27,333.11 247.27,333.11 C247.27,333.11 249.50,325.44 249.50,325.44 C249.50,325.44 250.50,324.34 250.50,324.34 C250.50,324.34 250.41,323.25 250.41,323.25 C250.41,323.25 250.69,323.02 250.69,323.02 C250.69,323.02 252.09,319.47 252.09,319.47 C252.09,319.47 253.55,317.67 253.55,317.67 C253.55,317.67 255.59,314.06 255.59,314.06 C255.59,314.06 256.47,312.88 256.47,312.88 C256.47,312.88 257.80,310.92 257.80,310.92 C257.80,310.92 258.67,309.66 258.67,309.66 C258.67,309.66 259.45,308.88 259.45,308.88 C259.45,308.88 260.17,308.02 260.17,308.02 C260.17,308.02 263.09,305.11 263.09,305.11 C263.09,305.11 266.92,301.58 266.92,301.58 C266.92,301.58 269.22,299.45 269.22,299.45 C269.22,299.45 270.62,298.28 270.62,298.28 C270.62,298.28 271.66,297.81 271.66,297.81 C271.66,297.81 275.22,294.52 275.22,294.52 C275.22,294.52 276.47,293.73 276.47,293.73 C276.47,293.73 278.06,292.39 278.06,292.39 C278.06,292.39 279.58,291.06 279.58,291.06 C279.58,291.06 283.86,287.61 283.86,287.61 C283.86,287.61 286.98,284.86 286.98,284.86 C286.98,284.86 287.86,284.39 287.86,284.39 C287.86,284.39 288.41,283.61 288.41,283.61 C288.41,283.61 290.28,282.42 290.28,282.42 C290.28,282.42 290.67,281.64 290.67,281.64 C290.67,281.64 291.38,281.25 291.38,281.25 C291.38,281.25 295.67,277.41 295.67,277.41 C295.67,277.41 298.70,273.16 298.70,273.16 C298.70,273.16 301.73,269.31 301.73,269.31 C301.73,269.31 304.14,264.69 304.14,264.69 C304.14,264.69 307.38,256.36 307.38,256.36 C307.38,256.36 307.33,251.50 307.33,251.50 C307.33,251.50 306.55,249.53 306.55,249.53 C306.55,249.53 305.36,247.66 305.36,247.66 C305.36,247.66 303.48,245.77 303.48,245.77 C303.48,245.77 302.55,245.38 302.55,245.38 C302.55,245.38 298.36,244.05 298.36,244.05 C298.36,244.05 293.33,243.81 293.33,243.81 C293.33,243.81 292.09,244.12 292.09,244.12 C292.09,244.12 290.19,243.89 290.19,243.89 C290.19,243.89 286.62,245.30 286.62,245.30 C286.62,245.30 282.72,246.47 282.72,246.47 C282.72,246.47 281.27,247.42 281.27,247.42 C281.27,247.42 277.77,249.69 277.77,249.69 C277.77,249.69 275.78,251.81 275.78,251.81 C275.78,251.81 274.89,252.36 274.89,252.36 C274.89,252.36 270.44,257.08 270.44,257.08 C270.44,257.08 268.31,259.50 268.31,259.50 C268.31,259.50 264.83,266.72 264.83,266.72 C264.83,266.72 264.03,271.52 264.03,271.52 C264.03,271.52 264.12,274.97 264.12,274.97 C264.12,274.97 266.16,277.72 266.16,277.72 C266.16,277.72 266.81,277.95 266.81,277.95 C266.81,277.95 267.41,278.50 267.41,278.50 C267.41,278.50 267.98,278.34 267.98,278.34 C267.98,278.34 270.89,279.05 270.89,279.05 C270.89,279.05 274.09,277.88 274.09,277.88 C274.09,277.88 275.91,277.02 275.91,277.02 C275.91,277.02 279.34,274.27 279.34,274.27 C279.34,274.27 280.92,272.61 280.92,272.61 C280.92,272.61 282.38,268.84 282.38,268.84 C282.38,268.84 282.55,268.38 282.55,268.38 C282.55,268.38 282.52,267.36 282.52,267.36 C282.52,267.36 282.05,266.17 282.05,266.17 C282.05,266.17 280.56,264.61 280.56,264.61 C280.56,264.61 280.59,264.45 280.59,264.45 C280.59,264.45 281.25,263.91 281.25,263.91 C281.25,263.91 284.11,264.45 284.11,264.45 C284.11,264.45 285.67,265.62 285.67,265.62 C285.67,265.62 287.14,268.84 287.14,268.84 C287.14,268.84 287.17,272.22 287.17,272.22 C287.17,272.22 285.86,275.28 285.86,275.28 C285.86,275.28 284.62,276.78 284.62,276.78 C284.62,276.78 284.06,276.86 284.06,276.86 C284.06,276.86 282.45,279.05 282.45,279.05 C282.45,279.05 281.38,279.36 281.38,279.36 C281.38,279.36 280.03,280.94 280.03,280.94 C280.03,280.94 279.22,281.48 279.22,281.48 C279.22,281.48 274.33,282.89 274.33,282.89 C274.33,282.89 271.08,283.12 271.08,283.12 C271.08,283.12 268.58,282.73 268.58,282.73 C268.58,282.73 268.33,282.42 268.33,282.42 C268.33,282.42 267.98,282.58 267.98,282.58 C267.98,282.58 266.28,282.11 266.28,282.11 C266.28,282.11 263.55,279.83 263.55,279.83 C263.55,279.83 263.00,279.44 263.00,279.44 C263.00,279.44 261.81,276.38 261.81,276.38 C261.81,276.38 261.33,275.67 261.33,275.67 C261.33,275.67 260.94,273.31 260.94,273.31 C260.94,273.31 261.23,272.61 261.23,272.61 C261.23,272.61 261.48,271.36 261.48,271.36 C261.48,271.36 261.08,270.66 261.08,270.66 C261.08,270.66 262.77,263.75 262.77,263.75 C262.77,263.75 265.69,258.17 265.69,258.17 C265.69,258.17 266.61,256.67 266.61,256.67 C266.61,256.67 268.34,254.64 268.34,254.64 C268.34,254.64 269.58,252.75 269.58,252.75 C269.58,252.75 271.17,251.42 271.17,251.42 C271.17,251.42 275.11,247.34 275.11,247.34 C275.11,247.34 277.03,246.39 277.03,246.39 C277.03,246.39 281.12,244.28 281.12,244.28 C281.12,244.28 281.88,243.64 281.88,243.64 C281.88,243.64 286.50,242.00 286.50,242.00 C286.50,242.00 287.92,241.09 287.92,241.09 C287.92,241.09 290.45,241.00 290.45,241.00 C290.45,241.00 296.31,241.00 296.31,241.00 M372.14,236.25 C372.14,236.25 382.91,236.00 382.91,236.00 C382.91,236.00 387.05,237.17 387.05,237.17 C387.05,237.17 390.02,238.73 390.02,238.73 C390.02,238.73 391.55,239.67 391.55,239.67 C391.55,239.67 392.36,240.67 392.36,240.67 C392.36,240.67 392.77,240.59 392.77,240.59 C392.77,240.59 395.89,244.50 395.89,244.50 C395.89,244.50 396.91,246.45 396.91,246.45 C396.91,246.45 397.12,247.31 397.12,247.31 C397.12,247.31 398.41,252.22 398.41,252.22 C398.41,252.22 398.80,256.11 398.80,256.11 C398.80,256.11 398.03,261.50 398.03,261.50 C398.03,261.50 395.22,267.73 395.22,267.73 C395.22,267.73 391.06,271.78 391.06,271.78 C391.06,271.78 390.08,273.19 390.08,273.19 C390.08,273.19 388.72,273.73 388.72,273.73 C388.72,273.73 386.20,276.16 386.20,276.16 C386.20,276.16 384.59,277.56 384.59,277.56 C384.59,277.56 382.17,278.33 382.17,278.33 C382.17,278.33 381.36,278.88 381.36,278.88 C381.36,278.88 380.02,279.73 380.02,279.73 C380.02,279.73 378.56,279.97 378.56,279.97 C378.56,279.97 377.06,280.83 377.06,280.83 C377.06,280.83 374.66,281.53 374.66,281.53 C374.66,281.53 377.64,283.41 377.64,283.41 C377.64,283.41 380.84,284.97 380.84,284.97 C380.84,284.97 382.36,287.14 382.36,287.14 C382.36,287.14 383.19,287.69 383.19,287.69 C383.19,287.69 383.22,288.31 383.22,288.31 C383.22,288.31 385.70,290.73 385.70,290.73 C385.70,290.73 386.30,292.83 386.30,292.83 C386.30,292.83 386.55,293.14 386.55,293.14 C386.55,293.14 387.38,295.25 387.38,295.25 C387.38,295.25 387.44,296.50 387.44,296.50 C387.44,296.50 388.05,296.97 388.05,296.97 C388.05,296.97 388.55,297.98 388.55,297.98 C388.55,297.98 388.73,299.77 388.73,299.77 C388.73,299.77 388.38,302.73 388.38,302.73 C388.38,302.73 387.83,305.08 387.83,305.08 C387.83,305.08 386.75,311.31 386.75,311.31 C386.75,311.31 384.52,315.05 384.52,315.05 C384.52,315.05 382.23,319.42 382.23,319.42 C382.23,319.42 382.17,319.73 382.17,319.73 C382.17,319.73 381.48,320.42 381.48,320.42 C381.48,320.42 381.00,321.67 381.00,321.67 C381.00,321.67 379.16,323.47 379.16,323.47 C379.16,323.47 376.77,326.44 376.77,326.44 C376.77,326.44 375.75,327.22 375.75,327.22 C375.75,327.22 371.41,330.95 371.41,330.95 C371.41,330.95 369.56,331.97 369.56,331.97 C369.56,331.97 369.02,332.75 369.02,332.75 C369.02,332.75 367.20,333.61 367.20,333.61 C367.20,333.61 366.67,334.31 366.67,334.31 C366.67,334.31 365.16,334.84 365.16,334.84 C365.16,334.84 362.70,336.56 362.70,336.56 C362.70,336.56 360.81,337.42 360.81,337.42 C360.81,337.42 359.47,337.89 359.47,337.89 C359.47,337.89 358.56,338.52 358.56,338.52 C358.56,338.52 355.58,339.77 355.58,339.77 C355.58,339.77 352.66,340.70 352.66,340.70 C352.66,340.70 348.97,341.62 348.97,341.62 C348.97,341.62 347.31,342.88 347.31,342.88 C347.31,342.88 347.41,343.19 347.41,343.19 C347.41,343.19 343.25,348.34 343.25,348.34 C343.25,348.34 342.86,348.72 342.86,348.72 C342.86,348.72 339.94,352.00 339.94,352.00 C339.94,352.00 339.36,351.75 339.36,351.75 C339.36,351.75 339.28,351.00 339.28,351.00 C339.28,351.00 338.50,351.00 338.50,351.00 C338.50,351.00 338.25,350.30 338.25,350.30 C338.25,350.30 338.88,349.84 338.88,349.84 C338.88,349.84 339.39,348.83 339.39,348.83 C339.39,348.83 340.77,347.44 340.77,347.44 C340.77,347.44 341.16,346.67 341.16,346.67 C341.16,346.67 343.33,344.03 343.33,344.03 C343.33,344.03 344.38,342.72 344.38,342.72 C344.38,342.72 342.08,342.88 342.08,342.88 C342.08,342.88 336.06,342.88 336.06,342.88 C336.06,342.88 332.42,342.33 332.42,342.33 C332.42,342.33 328.58,340.84 328.58,340.84 C328.58,340.84 326.16,339.67 326.16,339.67 C326.16,339.67 325.52,339.36 325.52,339.36 C325.52,339.36 322.41,336.48 322.41,336.48 C322.41,336.48 320.77,334.92 320.77,334.92 C320.77,334.92 320.39,333.67 320.39,333.67 C320.39,333.67 319.72,333.12 319.72,333.12 C319.72,333.12 318.28,329.78 318.28,329.78 C318.28,329.78 317.72,328.30 317.72,328.30 C317.72,328.30 317.52,326.19 317.52,326.19 C317.52,326.19 317.53,324.94 317.53,324.94 C317.53,324.94 319.66,313.56 319.66,313.56 C319.66,313.56 321.47,309.59 321.47,309.59 C321.47,309.59 322.59,307.88 322.59,307.88 C322.59,307.88 324.33,306.23 324.33,306.23 C324.33,306.23 327.44,302.80 327.44,302.80 C327.44,302.80 331.34,300.39 331.34,300.39 C331.34,300.39 335.19,298.75 335.19,298.75 C335.19,298.75 338.56,298.28 338.56,298.28 C338.56,298.28 343.95,298.67 343.95,298.67 C343.95,298.67 347.61,300.70 347.61,300.70 C347.61,300.70 350.61,303.34 350.61,303.34 C350.61,303.34 350.78,304.44 350.78,304.44 C350.78,304.44 351.48,305.22 351.48,305.22 C351.48,305.22 352.34,306.78 352.34,306.78 C352.34,306.78 352.52,308.27 352.52,308.27 C352.52,308.27 352.20,312.16 352.20,312.16 C352.20,312.16 351.88,312.62 351.88,312.62 C351.88,312.62 352.08,313.17 352.08,313.17 C352.08,313.17 351.14,315.52 351.14,315.52 C351.14,315.52 349.41,317.14 349.41,317.14 C349.41,317.14 346.03,319.95 346.03,319.95 C346.03,319.95 344.28,320.50 344.28,320.50 C344.28,320.50 341.20,320.66 341.20,320.66 C341.20,320.66 340.94,320.03 340.94,320.03 C340.94,320.03 338.69,318.78 338.69,318.78 C338.69,318.78 337.97,317.30 337.97,317.30 C337.97,317.30 338.84,313.72 338.84,313.72 C338.84,313.72 340.28,310.83 340.28,310.83 C340.28,310.83 343.34,309.97 343.34,309.97 C343.34,309.97 345.56,310.59 345.56,310.59 C345.56,310.59 346.97,311.38 346.97,311.38 C346.97,311.38 346.97,312.94 346.97,312.94 C346.97,312.94 346.67,314.42 346.67,314.42 C346.67,314.42 347.30,314.81 347.30,314.81 C347.30,314.81 347.88,314.66 347.88,314.66 C347.88,314.66 348.84,314.11 348.84,314.11 C348.84,314.11 349.92,312.62 349.92,312.62 C349.92,312.62 350.36,311.61 350.36,311.61 C350.36,311.61 350.02,307.48 350.02,307.48 C350.02,307.48 349.47,307.09 349.47,307.09 C349.47,307.09 349.33,305.84 349.33,305.84 C349.33,305.84 347.97,304.44 347.97,304.44 C347.97,304.44 347.44,303.19 347.44,303.19 C347.44,303.19 343.97,301.72 343.97,301.72 C343.97,301.72 342.08,301.41 342.08,301.41 C342.08,301.41 337.19,302.03 337.19,302.03 C337.19,302.03 335.89,302.72 335.89,302.72 C335.89,302.72 333.89,303.34 333.89,303.34 C333.89,303.34 333.22,303.97 333.22,303.97 C333.22,303.97 332.75,303.97 332.75,303.97 C332.75,303.97 328.64,306.94 328.64,306.94 C328.64,306.94 324.88,311.30 324.88,311.30 C324.88,311.30 322.64,315.05 322.64,315.05 C322.64,315.05 320.83,320.97 320.83,320.97 C320.83,320.97 320.30,324.78 320.30,324.78 C320.30,324.78 321.23,327.12 321.23,327.12 C321.23,327.12 321.58,328.92 321.58,328.92 C321.58,328.92 323.78,333.12 323.78,333.12 C323.78,333.12 326.14,335.39 326.14,335.39 C326.14,335.39 326.34,335.94 326.34,335.94 C326.34,335.94 327.11,336.41 327.11,336.41 C327.11,336.41 333.11,338.44 333.11,338.44 C333.11,338.44 334.66,338.91 334.66,338.91 C334.66,338.91 335.30,338.44 335.30,338.44 C335.30,338.44 337.69,338.59 337.69,338.59 C337.69,338.59 338.92,338.28 338.92,338.28 C338.92,338.28 342.33,338.05 342.33,338.05 C342.33,338.05 346.56,337.19 346.56,337.19 C346.56,337.19 349.34,336.17 349.34,336.17 C349.34,336.17 352.08,332.66 352.08,332.66 C352.08,332.66 352.19,332.11 352.19,332.11 C352.19,332.11 353.56,329.94 353.56,329.94 C353.56,329.94 356.08,326.34 356.08,326.34 C356.08,326.34 357.08,322.92 357.08,322.92 C357.08,322.92 360.22,317.77 360.22,317.77 C360.22,317.77 360.58,316.38 360.58,316.38 C360.58,316.38 361.19,315.67 361.19,315.67 C361.19,315.67 363.20,310.28 363.20,310.28 C363.20,310.28 363.31,308.97 363.31,308.97 C363.31,308.97 363.58,308.42 363.58,308.42 C363.58,308.42 366.59,300.31 366.59,300.31 C366.59,300.31 366.56,299.30 366.56,299.30 C366.56,299.30 367.61,297.97 367.61,297.97 C367.61,297.97 368.03,295.08 368.03,295.08 C368.03,295.08 368.31,294.86 368.31,294.86 C368.31,294.86 369.86,288.30 369.86,288.30 C369.86,288.30 371.02,285.27 371.02,285.27 C371.02,285.27 369.53,284.09 369.53,284.09 C369.53,284.09 366.09,283.31 366.09,283.31 C366.09,283.31 364.34,282.69 364.34,282.69 C364.34,282.69 362.53,282.77 362.53,282.77 C362.53,282.77 360.78,282.14 360.78,282.14 C360.78,282.14 361.66,280.12 361.66,280.12 C361.66,280.12 362.00,279.97 362.00,279.97 C362.00,279.97 362.61,278.48 362.61,278.48 C362.61,278.48 363.80,278.02 363.80,278.02 C363.80,278.02 366.64,277.86 366.64,277.86 C366.64,277.86 366.83,278.09 366.83,278.09 C366.83,278.09 370.69,277.16 370.69,277.16 C370.69,277.16 372.84,276.14 372.84,276.14 C372.84,276.14 374.05,272.88 374.05,272.88 C374.05,272.88 374.38,270.45 374.38,270.45 C374.38,270.45 374.39,269.20 374.39,269.20 C374.39,269.20 374.84,268.11 374.84,268.11 C374.84,268.11 376.41,259.06 376.41,259.06 C376.41,259.06 377.58,254.78 377.58,254.78 C377.58,254.78 377.44,254.31 377.44,254.31 C377.44,254.31 378.14,249.62 378.14,249.62 C378.14,249.62 378.50,245.09 378.50,245.09 C378.50,245.09 378.53,244.55 378.53,244.55 C378.53,244.55 378.23,239.39 378.23,239.39 C378.23,239.39 378.05,239.16 378.05,239.16 C378.05,239.16 375.34,239.00 375.34,239.00 C375.34,239.00 371.36,239.39 371.36,239.39 C371.36,239.39 371.12,239.39 371.12,239.39 C371.12,239.39 363.30,241.81 363.30,241.81 C363.30,241.81 357.86,244.78 357.86,244.78 C357.86,244.78 353.25,249.08 353.25,249.08 C353.25,249.08 349.58,254.94 349.58,254.94 C349.58,254.94 348.56,258.83 348.56,258.83 C348.56,258.83 348.48,259.22 348.48,259.22 C348.48,259.22 348.72,261.95 348.72,261.95 C348.72,261.95 349.75,264.22 349.75,264.22 C349.75,264.22 351.33,264.92 351.33,264.92 C351.33,264.92 353.69,265.23 353.69,265.23 C353.69,265.23 357.11,264.53 357.11,264.53 C357.11,264.53 358.58,263.83 358.58,263.83 C358.58,263.83 360.86,261.80 360.86,261.80 C360.86,261.80 362.95,257.98 362.95,257.98 C362.95,257.98 362.81,254.78 362.81,254.78 C362.81,254.78 366.59,256.97 366.59,256.97 C366.59,256.97 366.86,257.20 366.86,257.20 C366.86,257.20 367.55,259.62 367.55,259.62 C367.55,259.62 367.14,263.61 367.14,263.61 C367.14,263.61 365.64,266.42 365.64,266.42 C365.64,266.42 363.92,267.59 363.92,267.59 C363.92,267.59 360.64,269.55 360.64,269.55 C360.64,269.55 359.11,269.78 359.11,269.78 C359.11,269.78 357.62,270.56 357.62,270.56 C357.62,270.56 353.78,270.64 353.78,270.64 C353.78,270.64 352.20,270.33 352.20,270.33 C352.20,270.33 349.53,268.84 349.53,268.84 C349.53,268.84 347.11,266.11 347.11,266.11 C347.11,266.11 347.00,265.48 347.00,265.48 C347.00,265.48 345.55,261.81 345.55,261.81 C345.55,261.81 345.88,257.44 345.88,257.44 C345.88,257.44 346.38,255.33 346.38,255.33 C346.38,255.33 346.66,255.09 346.66,255.09 C346.66,255.09 347.05,253.92 347.05,253.92 C347.05,253.92 349.20,249.81 349.20,249.81 C349.20,249.81 352.00,246.78 352.00,246.78 C352.00,246.78 353.36,245.39 353.36,245.39 C353.36,245.39 356.66,242.59 356.66,242.59 C356.66,242.59 356.97,242.59 356.97,242.59 C356.97,242.59 360.52,240.50 360.52,240.50 C360.52,240.50 361.58,239.88 361.58,239.88 C361.58,239.88 366.94,237.70 366.94,237.70 C366.94,237.70 368.56,237.00 368.56,237.00 C368.56,237.00 370.33,236.75 370.33,236.75 C370.33,236.75 372.14,236.25 372.14,236.25 M381.11,239.91 C381.11,239.91 380.66,243.73 380.66,243.73 C380.66,243.73 380.64,243.81 380.64,243.81 C380.64,243.81 380.61,246.31 380.61,246.31 C380.61,246.31 380.56,250.45 380.56,250.45 C380.56,250.45 378.94,260.14 378.94,260.14 C378.94,260.14 378.56,260.45 378.56,260.45 C378.56,260.45 377.78,264.36 377.78,264.36 C377.78,264.36 377.48,264.67 377.48,264.67 C377.48,264.67 377.50,266.94 377.50,266.94 C377.50,266.94 376.89,269.20 376.89,269.20 C376.89,269.20 375.72,274.28 375.72,274.28 C375.72,274.28 376.39,274.05 376.39,274.05 C376.39,274.05 378.83,272.41 378.83,272.41 C378.83,272.41 383.62,267.95 383.62,267.95 C383.62,267.95 385.95,265.30 385.95,265.30 C385.95,265.30 388.50,261.94 388.50,261.94 C388.50,261.94 388.83,261.08 388.83,261.08 C388.83,261.08 389.14,259.91 389.14,259.91 C389.14,259.91 390.25,255.92 390.25,255.92 C390.25,255.92 390.47,254.05 390.47,254.05 C390.47,254.05 390.89,250.38 390.89,250.38 C390.89,250.38 389.59,245.53 389.59,245.53 C389.59,245.53 388.95,244.05 388.95,244.05 C388.95,244.05 388.39,243.73 388.39,243.73 C388.39,243.73 387.36,242.25 387.36,242.25 C387.36,242.25 383.94,240.22 383.94,240.22 C383.94,240.22 381.11,239.91 381.11,239.91 M373.47,286.25 C373.47,286.25 373.14,286.33 373.14,286.33 C373.14,286.33 371.31,291.95 371.31,291.95 C371.31,291.95 370.11,297.19 370.11,297.19 C370.11,297.19 369.70,297.66 369.70,297.66 C369.70,297.66 369.14,300.08 369.14,300.08 C369.14,300.08 367.83,303.91 367.83,303.91 C367.83,303.91 367.36,304.30 367.36,304.30 C367.36,304.30 366.62,306.02 366.62,306.02 C366.62,306.02 366.81,306.25 366.81,306.25 C366.81,306.25 365.61,309.92 365.61,309.92 C365.61,309.92 364.55,312.50 364.55,312.50 C364.55,312.50 362.89,316.48 362.89,316.48 C362.89,316.48 361.31,320.86 361.31,320.86 C361.31,320.86 359.75,323.20 359.75,323.20 C359.75,323.20 358.42,326.33 358.42,326.33 C358.42,326.33 357.47,328.36 357.47,328.36 C357.47,328.36 354.81,332.27 354.81,332.27 C354.81,332.27 354.81,332.66 354.81,332.66 C354.81,332.66 354.44,332.97 354.44,332.97 C354.44,332.97 354.11,333.83 354.11,333.83 C354.11,333.83 353.66,334.14 353.66,334.14 C353.66,334.14 353.62,334.30 353.62,334.30 C353.62,334.30 353.94,334.30 353.94,334.30 C353.94,334.30 359.98,330.62 359.98,330.62 C359.98,330.62 365.03,326.09 365.03,326.09 C365.03,326.09 366.83,324.14 366.83,324.14 C366.83,324.14 368.27,323.20 368.27,323.20 C368.27,323.20 368.36,322.73 368.36,322.73 C368.36,322.73 369.14,321.56 369.14,321.56 C369.14,321.56 371.61,318.20 371.61,318.20 C371.61,318.20 372.14,316.72 372.14,316.72 C372.14,316.72 373.75,314.92 373.75,314.92 C373.75,314.92 375.95,310.55 375.95,310.55 C375.95,310.55 377.50,306.33 377.50,306.33 C377.50,306.33 377.72,306.02 377.72,306.02 C377.72,306.02 379.27,299.45 379.27,299.45 C379.27,299.45 378.89,294.69 378.89,294.69 C378.89,294.69 377.47,290.08 377.47,290.08 C377.47,290.08 375.00,287.19 375.00,287.19 C375.00,287.19 374.61,286.41 374.61,286.41 C374.61,286.41 373.73,286.48 373.73,286.48 C373.73,286.48 373.47,286.25 373.47,286.25 M160.25,26.75 C160.25,27.43 159.72,28.18 158.67,29.00 C157.62,29.82 157.02,30.42 156.88,30.80 C154.93,34.46 154.02,41.69 154.17,52.47 C154.17,52.47 154.28,56.84 154.28,56.84 C154.51,56.77 154.77,56.73 155.08,56.73 C156.20,56.73 157.27,57.38 158.28,58.66 C159.29,59.93 159.80,61.16 159.80,62.36 C159.80,63.26 159.08,63.89 157.66,64.27 C156.53,64.50 155.41,64.73 154.28,64.95 C154.35,68.48 154.43,72.04 154.50,75.64 C154.66,80.21 155.14,83.62 155.97,85.88 C156.57,87.75 156.88,88.98 156.88,89.58 C156.88,91.08 156.31,92.45 155.19,93.69 C154.06,94.93 152.75,95.55 151.25,95.55 C148.41,95.55 146.53,94.05 145.62,91.05 C145.48,90.45 145.14,87.82 144.61,83.17 C144.46,81.53 144.39,79.54 144.39,77.22 C144.39,77.22 144.39,72.59 144.39,72.59 C144.32,69.52 144.13,67.01 143.83,65.06 C139.47,65.22 134.30,65.87 128.30,67.02 C123.13,68.01 117.99,69.00 112.89,70.00 C113.19,70.99 113.34,75.12 113.34,82.39 C113.34,88.20 114.20,92.03 115.92,93.88 C116.15,94.25 116.27,94.63 116.27,95.02 C116.27,97.00 114.77,98.00 111.77,98.00 C108.99,98.00 106.82,97.13 105.23,95.39 C104.27,94.33 103.33,86.46 102.42,71.78 C100.99,71.48 99.87,70.61 99.05,69.17 C98.22,67.73 97.81,66.23 97.81,64.64 C97.81,63.73 98.30,63.11 99.27,62.77 C100.24,62.42 101.19,62.10 102.09,61.80 C102.16,60.82 102.31,59.04 102.53,56.47 C102.76,54.27 102.88,52.53 102.88,51.25 C102.88,37.94 103.59,29.46 105.02,25.83 C106.21,22.88 108.27,21.41 111.20,21.41 C113.00,21.41 114.69,21.99 116.27,23.16 C117.84,24.31 118.62,25.76 118.62,27.48 C118.62,28.38 118.32,29.51 117.72,30.86 C116.89,32.66 116.45,33.71 116.38,34.00 C114.35,40.30 113.34,47.80 113.34,56.50 C113.34,57.93 113.34,58.79 113.34,59.09 C114.02,59.02 115.78,58.73 118.62,58.20 C127.48,56.40 135.80,55.50 143.61,55.50 C143.83,44.50 144.12,37.39 144.50,34.17 C145.78,23.39 148.37,18.00 152.27,18.00 C154.59,18.00 156.50,18.88 158.00,20.64 C159.50,22.40 160.25,24.44 160.25,26.75 M209.20,76.88 C209.20,86.62 208.90,93.48 208.30,97.48 C207.92,99.83 206.35,101.00 203.58,101.00 C199.38,101.00 197.50,98.84 197.95,94.53 C194.20,96.84 190.30,98.00 186.25,98.00 C182.35,98.00 178.64,97.02 175.11,95.06 C170.91,92.73 168.81,89.75 168.81,86.12 C168.81,82.59 171.21,79.27 176.02,76.19 C180.37,73.40 184.46,72.00 188.28,72.00 C188.28,72.00 197.84,72.00 197.84,72.00 C197.84,72.00 197.84,69.20 197.84,69.20 C197.91,61.07 195.59,57.00 190.86,57.00 C184.93,57.00 181.97,59.74 181.97,65.22 C181.97,67.07 180.92,68.00 178.83,68.00 C177.55,68.00 176.21,67.42 174.83,66.25 C173.44,65.07 172.75,63.84 172.75,62.55 C172.75,58.31 174.25,54.82 177.25,52.09 C180.25,49.37 183.85,48.00 188.05,48.00 C202.15,48.00 209.20,57.62 209.20,76.88 M197.84,81.20 C197.84,79.73 196.72,79.00 194.47,79.00 C185.09,79.00 180.41,81.16 180.41,85.48 C180.41,87.83 182.47,89.00 186.59,89.00 C189.14,89.00 191.55,88.30 193.80,86.91 C196.49,85.38 197.84,83.48 197.84,81.20 M257.06,68.30 C257.06,75.92 255.71,82.39 253.02,87.69 C249.64,94.56 244.54,98.00 237.72,98.00 C234.04,98.00 230.89,97.33 228.27,96.00 C228.27,96.83 228.27,97.97 228.27,99.41 C228.27,101.07 228.27,102.21 228.27,102.81 C228.27,110.08 229.09,115.80 230.73,119.95 C231.48,121.62 231.86,122.68 231.86,123.14 C231.86,125.71 230.36,127.00 227.36,127.00 C225.11,127.00 223.42,126.58 222.30,125.75 C221.47,125.22 220.65,123.32 219.83,120.06 C219.15,117.19 218.81,114.99 218.81,113.48 C218.81,113.48 218.81,86.11 218.81,86.11 C218.81,83.61 218.96,80.20 219.27,75.88 C219.57,71.03 219.75,67.66 219.83,65.77 C219.90,63.87 219.90,61.37 219.83,58.27 C219.75,54.33 219.72,51.79 219.72,50.66 C219.72,44.22 221.82,41.00 226.02,41.00 C227.05,41.00 228.02,41.37 228.92,42.11 C229.83,42.84 230.28,43.71 230.28,44.72 C230.28,46.43 230.09,49.53 229.72,54.03 C232.64,49.34 236.17,47.00 240.30,47.00 C245.85,47.00 250.12,49.24 253.12,53.72 C255.75,57.61 257.06,62.46 257.06,68.30 M247.05,67.66 C247.05,59.89 245.32,56.00 241.88,56.00 C240.38,56.00 238.43,57.40 236.03,60.20 C231.38,65.61 228.82,73.06 228.38,82.55 C229.20,82.98 230.66,84.50 232.77,87.08 C234.41,89.03 236.05,90.00 237.70,90.00 C243.93,90.00 247.05,82.55 247.05,67.66 M303.06,68.30 C303.06,75.92 301.71,82.39 299.02,87.69 C295.64,94.56 290.54,98.00 283.72,98.00 C280.04,98.00 276.89,97.33 274.27,96.00 C274.27,96.83 274.27,97.97 274.27,99.41 C274.27,101.07 274.27,102.21 274.27,102.81 C274.27,110.08 275.09,115.80 276.73,119.95 C277.48,121.62 277.86,122.68 277.86,123.14 C277.86,125.71 276.36,127.00 273.36,127.00 C271.11,127.00 269.42,126.58 268.30,125.75 C267.47,125.22 266.65,123.32 265.83,120.06 C265.15,117.19 264.81,114.99 264.81,113.48 C264.81,113.48 264.81,86.11 264.81,86.11 C264.81,83.61 264.96,80.20 265.27,75.88 C265.57,71.03 265.75,67.66 265.83,65.77 C265.90,63.87 265.90,61.37 265.83,58.27 C265.75,54.33 265.72,51.79 265.72,50.66 C265.72,44.22 267.82,41.00 272.02,41.00 C273.05,41.00 274.02,41.37 274.92,42.11 C275.83,42.84 276.28,43.71 276.28,44.72 C276.28,46.43 276.09,49.53 275.72,54.03 C278.64,49.34 282.17,47.00 286.30,47.00 C291.85,47.00 296.12,49.24 299.12,53.72 C301.75,57.61 303.06,62.46 303.06,68.30 M293.05,67.66 C293.05,59.89 291.32,56.00 287.88,56.00 C286.38,56.00 284.43,57.40 282.03,60.20 C277.38,65.61 274.82,73.06 274.38,82.55 C275.20,82.98 276.66,84.50 278.77,87.08 C280.41,89.03 282.05,90.00 283.70,90.00 C289.93,90.00 293.05,82.55 293.05,67.66 M350.30,52.80 C349.62,56.56 348.98,60.28 348.39,63.97 C347.64,68.34 347.27,72.06 347.27,75.14 C347.27,75.14 347.27,105.84 347.27,105.84 C347.27,111.41 345.67,115.66 342.48,118.59 C339.30,121.53 334.93,123.00 329.38,123.00 C325.77,123.00 321.80,122.05 317.45,120.14 C312.27,117.93 309.69,115.27 309.69,112.14 C309.69,111.08 310.12,110.18 310.98,109.45 C311.85,108.73 312.80,108.38 313.84,108.38 C314.52,108.38 316.13,109.31 318.69,111.19 C321.24,113.06 324.16,114.00 327.45,114.00 C331.65,114.00 334.46,112.55 335.89,109.64 C336.94,107.65 337.47,104.45 337.47,100.05 C337.47,98.41 337.43,97.06 337.36,96.00 C334.88,97.33 332.10,98.00 329.03,98.00 C323.41,98.00 319.05,95.93 315.98,91.80 C313.21,88.05 311.83,83.26 311.83,77.44 C311.83,76.82 312.20,67.18 312.95,48.50 C315.20,47.50 317.00,47.00 318.34,47.00 C319.84,47.00 322.05,47.93 324.98,49.78 C323.18,54.43 322.28,63.72 322.28,77.66 C322.28,86.55 324.46,91.00 328.81,91.00 C332.04,91.00 334.52,88.27 336.25,82.81 C337.52,78.88 338.16,74.79 338.16,70.55 C338.16,70.55 338.16,56.67 338.16,56.67 C338.16,56.76 338.04,55.51 337.81,52.92 C340.88,51.41 343.17,50.66 344.67,50.66 C346.24,50.66 348.12,51.37 350.30,52.80 M81.92,140.05 C81.92,140.87 81.58,141.92 80.91,143.19 C80.08,144.84 79.60,145.86 79.45,146.23 C77.27,153.07 76.19,158.66 76.19,163.02 C76.19,163.02 75.84,195.33 75.84,195.33 C75.77,198.63 75.02,202.01 73.59,205.47 C71.72,209.82 69.39,212.00 66.62,212.00 C62.50,212.00 58.41,208.56 54.36,201.69 C51.43,196.62 48.47,189.59 45.47,180.62 C43.75,174.80 41.99,168.98 40.19,163.16 C38.61,175.94 37.83,184.51 37.83,188.86 C37.83,198.48 38.41,204.01 39.56,205.44 C40.73,206.87 41.31,207.92 41.31,208.59 C41.31,210.02 40.56,211.28 39.06,212.38 C37.56,213.46 36.06,214.00 34.56,214.00 C32.46,214.00 30.73,211.79 29.39,207.36 C28.34,203.90 27.81,200.75 27.81,197.89 C27.81,196.61 27.85,194.71 27.92,192.20 C27.99,189.68 28.03,187.79 28.03,186.52 C28.03,183.43 28.41,178.85 29.16,172.77 C29.91,166.68 30.28,162.10 30.28,159.02 C30.28,159.02 30.28,145.28 30.28,145.28 C30.28,145.12 30.22,144.90 30.11,144.61 C30.00,144.31 29.95,144.08 29.95,143.92 C29.95,142.42 30.96,141.18 32.98,140.20 C34.64,139.38 36.29,138.97 37.94,138.97 C41.76,138.97 44.50,140.21 46.16,142.69 C46.60,143.52 47.02,145.25 47.39,147.88 C47.62,149.69 47.84,151.53 48.06,153.41 C48.96,158.75 51.32,167.32 55.16,179.12 C59.73,193.04 63.14,200.00 65.39,200.00 C66.21,200.00 66.62,198.95 66.62,196.83 C66.62,196.23 66.53,195.25 66.34,193.89 C66.16,192.53 66.06,191.46 66.06,190.70 C66.06,190.70 67.19,160.00 67.19,160.00 C67.41,155.40 68.20,150.87 69.55,146.41 C71.49,140.14 74.12,137.00 77.42,137.00 C78.47,137.00 79.94,137.68 81.81,139.03 C81.88,139.41 81.92,139.75 81.92,140.05 M126.16,204.23 C126.16,208.15 123.60,211.21 118.50,213.41 C114.53,215.13 110.37,216.00 106.02,216.00 C94.46,216.00 88.69,209.29 88.69,195.86 C88.69,190.33 90.00,184.19 92.62,177.44 C95.85,169.15 99.75,165.00 104.33,165.00 C108.45,165.00 112.89,166.86 117.66,170.56 C122.41,174.26 124.80,178.12 124.80,182.12 C124.80,187.12 122.58,191.09 118.16,194.03 C114.26,196.68 109.61,198.00 104.22,198.00 C103.16,198.00 101.48,197.45 99.16,196.34 C99.46,203.45 101.55,207.00 105.45,207.00 C108.75,207.00 112.00,206.07 115.19,204.20 C118.38,202.34 120.41,201.41 121.31,201.41 C124.54,201.41 126.16,202.35 126.16,204.23 M113.89,182.02 C113.89,180.11 113.34,178.30 112.25,176.58 C111.16,174.86 109.72,174.00 107.92,174.00 C105.45,174.00 103.54,175.11 102.19,177.33 C101.06,179.23 100.50,181.48 100.50,184.08 C100.50,185.53 100.98,186.71 101.95,187.62 C102.93,188.54 104.17,189.00 105.67,189.00 C111.15,189.00 113.89,186.67 113.89,182.02 M188.94,178.61 C188.94,185.41 187.70,192.45 185.22,199.70 C182.00,209.23 177.73,214.00 172.41,214.00 C167.38,214.00 163.21,210.96 159.91,204.89 C157.66,211.63 154.09,215.00 149.22,215.00 C143.00,215.00 138.46,210.71 135.61,202.12 C133.66,196.24 132.69,189.34 132.69,181.44 C132.69,176.47 132.88,172.44 133.25,169.34 C134.30,167.69 135.69,166.86 137.42,166.86 C138.92,166.86 140.44,167.34 141.97,168.31 C143.51,169.28 144.28,170.44 144.28,171.78 C144.28,172.75 144.04,174.19 143.55,176.09 C143.05,177.99 142.81,179.42 142.81,180.39 C142.81,196.80 144.57,205.00 148.09,205.00 C151.77,205.00 154.17,200.45 155.30,191.36 C155.67,187.93 155.86,181.93 155.86,173.36 C155.86,170.53 157.51,169.11 160.81,169.11 C164.49,169.11 166.33,171.16 166.33,175.27 C166.33,175.63 166.27,176.15 166.16,176.83 C166.04,177.50 165.98,177.98 165.98,178.28 C165.98,178.28 165.98,190.91 165.98,190.91 C165.98,200.30 167.71,205.00 171.16,205.00 C174.08,205.00 176.30,201.52 177.80,194.55 C178.92,189.70 179.48,184.96 179.48,180.34 C179.48,176.41 179.30,174.09 178.92,173.41 C178.85,173.26 178.44,172.81 177.69,172.05 C177.24,171.45 177.02,170.88 177.02,170.34 C177.02,168.98 177.61,167.75 178.81,166.66 C180.01,165.55 181.29,165.00 182.64,165.00 C184.66,165.00 186.27,166.81 187.47,170.44 C188.45,173.24 188.94,175.96 188.94,178.61 M269.59,144.12 C268.77,145.55 267.33,147.45 265.27,149.81 C263.20,152.17 261.81,153.98 261.09,155.27 C260.38,156.54 255.87,168.12 247.55,190.00 C240.49,208.67 235.80,218.00 233.48,218.00 C231.46,218.00 229.70,217.44 228.20,216.31 C226.47,215.10 225.61,213.52 225.61,211.56 C225.61,210.36 226.28,208.85 227.62,207.05 C228.98,205.23 230.48,202.03 232.14,197.44 C233.34,193.98 234.54,190.52 235.73,187.05 C231.23,183.43 227.26,177.90 223.81,170.44 C217.81,157.71 214.81,148.75 214.81,143.55 C214.81,139.18 216.76,137.00 220.66,137.00 C225.16,137.00 227.41,139.62 227.41,144.84 C227.41,145.38 227.31,146.19 227.12,147.28 C226.94,148.38 226.84,149.23 226.84,149.84 C226.84,153.02 228.30,158.02 231.23,164.83 C234.30,172.03 237.08,176.16 239.56,177.22 C240.53,175.79 242.66,171.48 245.97,164.28 C249.57,156.32 252.38,150.62 254.41,147.17 C257.78,141.55 260.59,138.73 262.84,138.73 C264.49,138.73 265.97,139.24 267.28,140.25 C268.59,141.26 269.36,142.55 269.59,144.12 M296.16,204.23 C296.16,208.15 293.60,211.21 288.50,213.41 C284.53,215.13 280.37,216.00 276.02,216.00 C264.46,216.00 258.69,209.29 258.69,195.86 C258.69,190.33 260.00,184.19 262.62,177.44 C265.85,169.15 269.75,165.00 274.33,165.00 C278.45,165.00 282.89,166.86 287.66,170.56 C292.41,174.26 294.80,178.12 294.80,182.12 C294.80,187.12 292.58,191.09 288.16,194.03 C284.26,196.68 279.61,198.00 274.22,198.00 C273.16,198.00 271.48,197.45 269.16,196.34 C269.46,203.45 271.55,207.00 275.45,207.00 C278.75,207.00 282.00,206.07 285.19,204.20 C288.38,202.34 290.41,201.41 291.31,201.41 C294.54,201.41 296.16,202.35 296.16,204.23 M283.89,182.02 C283.89,180.11 283.34,178.30 282.25,176.58 C281.16,174.86 279.72,174.00 277.92,174.00 C275.45,174.00 273.54,175.11 272.19,177.33 C271.06,179.23 270.50,181.48 270.50,184.08 C270.50,185.53 270.98,186.71 271.95,187.62 C272.93,188.54 274.17,189.00 275.67,189.00 C281.15,189.00 283.89,186.67 283.89,182.02 M341.20,194.88 C341.20,204.62 340.90,211.48 340.30,215.48 C339.92,217.83 338.35,219.00 335.58,219.00 C331.38,219.00 329.50,216.84 329.95,212.53 C326.20,214.84 322.30,216.00 318.25,216.00 C314.35,216.00 310.64,215.02 307.11,213.06 C302.91,210.73 300.81,207.75 300.81,204.12 C300.81,200.59 303.21,197.27 308.02,194.19 C312.37,191.40 316.46,190.00 320.28,190.00 C320.28,190.00 329.84,190.00 329.84,190.00 C329.84,190.00 329.84,187.20 329.84,187.20 C329.91,179.07 327.59,175.00 322.86,175.00 C316.93,175.00 313.97,177.74 313.97,183.22 C313.97,185.07 312.92,186.00 310.83,186.00 C309.55,186.00 308.21,185.42 306.83,184.25 C305.44,183.07 304.75,181.84 304.75,180.55 C304.75,176.31 306.25,172.82 309.25,170.09 C312.25,167.37 315.85,166.00 320.05,166.00 C334.15,166.00 341.20,175.62 341.20,194.88 M329.84,199.20 C329.84,197.73 328.72,197.00 326.47,197.00 C317.09,197.00 312.41,199.16 312.41,203.48 C312.41,205.83 314.47,207.00 318.59,207.00 C321.14,207.00 323.55,206.30 325.80,204.91 C328.49,203.38 329.84,201.48 329.84,199.20 M379.72,175.20 C379.72,175.73 379.64,176.57 379.50,177.72 C377.91,180.01 376.27,181.16 374.55,181.16 C373.12,181.16 371.84,180.38 370.72,178.81 C370.57,175.61 369.38,174.00 367.12,174.00 C365.77,174.00 364.12,177.50 362.17,184.50 C361.27,187.59 360.83,191.90 360.83,197.42 C360.83,202.65 361.09,205.82 361.61,206.92 C362.21,208.33 362.52,209.29 362.52,209.80 C362.52,211.05 361.93,212.06 360.77,212.84 C359.61,213.62 358.32,214.00 356.89,214.00 C352.84,214.00 350.81,212.14 350.81,208.42 C350.81,208.05 350.91,207.53 351.09,206.86 C351.28,206.18 351.38,205.70 351.38,205.41 C351.38,201.61 351.19,195.96 350.81,188.48 C350.44,181.00 350.25,175.39 350.25,171.67 C350.25,168.32 352.27,166.64 356.33,166.64 C358.72,166.64 360.37,167.36 361.27,168.78 C363.37,166.26 365.73,165.00 368.36,165.00 C370.16,165.00 371.88,165.50 373.53,166.48 C374.66,167.10 375.97,168.42 377.47,170.45 C378.97,172.48 379.72,174.06 379.72,175.20 M429.09,142.72 C429.09,143.25 428.91,143.81 428.53,144.41 C428.01,145.23 427.68,145.76 427.53,145.98 C425.80,150.26 424.52,155.70 423.70,162.30 C423.33,164.62 422.77,170.25 422.02,179.17 C422.02,179.55 421.92,180.28 421.73,181.38 C421.55,182.46 421.45,183.30 421.45,183.89 C421.45,185.85 421.86,188.44 422.69,191.66 C422.24,192.26 421.49,193.09 420.44,194.14 C419.61,194.36 418.71,194.47 417.73,194.47 C416.23,194.47 414.85,194.09 413.58,193.34 C412.45,191.25 411.89,188.55 411.89,185.25 C411.89,181.80 412.58,176.68 413.97,169.89 C415.35,163.10 416.05,157.98 416.05,154.53 C416.05,153.19 415.80,151.15 415.31,148.41 C414.83,145.67 414.59,143.62 414.59,142.27 C414.59,141.52 414.66,140.88 414.81,140.36 C416.69,138.79 418.97,138.00 421.67,138.00 C423.24,138.00 424.82,138.38 426.41,139.12 C428.20,140.09 429.09,141.29 429.09,142.72 M425.84,206.70 C425.84,212.23 422.58,215.00 416.06,215.00 C414.85,215.00 412.56,214.30 409.19,212.92 C408.29,211.32 407.84,209.79 407.84,208.34 C407.84,204.12 410.50,202.00 415.83,202.00 C417.77,202.00 419.77,202.37 421.80,203.09 C424.49,204.04 425.84,205.25 425.84,206.70 M459.09,142.72 C459.09,143.25 458.91,143.81 458.53,144.41 C458.01,145.23 457.68,145.76 457.53,145.98 C455.80,150.26 454.52,155.70 453.70,162.30 C453.33,164.62 452.77,170.25 452.02,179.17 C452.02,179.55 451.92,180.28 451.73,181.38 C451.55,182.46 451.45,183.30 451.45,183.89 C451.45,185.85 451.86,188.44 452.69,191.66 C452.24,192.26 451.49,193.09 450.44,194.14 C449.61,194.36 448.71,194.47 447.73,194.47 C446.23,194.47 444.85,194.09 443.58,193.34 C442.45,191.25 441.89,188.55 441.89,185.25 C441.89,181.80 442.58,176.68 443.97,169.89 C445.35,163.10 446.05,157.98 446.05,154.53 C446.05,153.19 445.80,151.15 445.31,148.41 C444.83,145.67 444.59,143.62 444.59,142.27 C444.59,141.52 444.66,140.88 444.81,140.36 C446.69,138.79 448.97,138.00 451.67,138.00 C453.24,138.00 454.82,138.38 456.41,139.12 C458.20,140.09 459.09,141.29 459.09,142.72 M455.84,206.70 C455.84,212.23 452.58,215.00 446.06,215.00 C444.85,215.00 442.56,214.30 439.19,212.92 C438.29,211.32 437.84,209.79 437.84,208.34 C437.84,204.12 440.50,202.00 445.83,202.00 C447.77,202.00 449.77,202.37 451.80,203.09 C454.49,204.04 455.84,205.25 455.84,206.70 " id="" stroke="black" stroke-width="3" fill="none"><animate values="white" visibility="visible" begin="0s" id="animate1" repeatCount="0" fill="freeze" attributeName="fill" dur="0s"></animate><animate values="0,110;110,0" attributeType="XML" begin="0s;animate2.end+5s" id="animate2" repeatCount="0" attributeName="stroke-dasharray" fill="freeze" dur="2s"></animate><animate values="white;orange" begin="2s;animate2.end" id="animate3" repeatCount="0" fill="freeze" attributeName="fill" dur="2s"></animate><animate attributeName="fill" values="orange;white" begin="6s;animate3end+2s" id="animate4" dur="1s" fill="freeze" repeatCount="0" attributeType="XML"></animate></path></svg>