<?xml version="1.0" encoding="UTF-8"?>
<!DOCTYPE svg PUBLIC "-//W3C//DTD SVG 1.1//EN" "http://www.w3.org/Graphics/SVG/1.1/DTD/svg11.dtd">
<svg version="1.2" width="111mm" height="95mm" viewBox="0 0 11100 9500" preserveAspectRatio="xMidYMid" fill-rule="evenodd" stroke-width="28.222" stroke-linejoin="round" xmlns="http://www.w3.org/2000/svg" xmlns:ooo="http://xml.openoffice.org/svg/export" xmlns:xlink="http://www.w3.org/1999/xlink" xmlns:presentation="http://sun.com/xmlns/staroffice/presentation" xmlns:smil="http://www.w3.org/2001/SMIL20/" xmlns:anim="urn:oasis:names:tc:opendocument:xmlns:animation:1.0" xml:space="preserve">
 <defs class="ClipPathGroup">
  <clipPath id="presentation_clip_path" clipPathUnits="userSpaceOnUse">
   <rect x="0" y="0" width="11100" height="9500"/>
  </clipPath>
  <clipPath id="presentation_clip_path_shrink" clipPathUnits="userSpaceOnUse">
   <rect x="11" y="9" width="11078" height="9481"/>
  </clipPath>
 </defs>
 <defs class="TextShapeIndex">
  <g ooo:slide="id1" ooo:id-list="id3 id4 id5 id6 id7 id8 id9 id10 id11 id12 id13 id14 id15 id16 id17 id18 id19 id20 id21 id22 id23 id24 id25 id26 id27 id28 id29 id30 id31 id32 id33 id34 id35 id36 id37 id38 id39 id40 id41 id42 id43 id44 id45 id46 id47 id48 id49 id50 id51 id52 id53 id54 id55 id56 id57 id58 id59"/>
 </defs>
 <defs class="EmbeddedBulletChars">
  <g id="bullet-char-template-57356" transform="scale(0.00048828125,-0.00048828125)">
   <path d="M 580,1141 L 1163,571 580,0 -4,571 580,1141 Z"/>
  </g>
  <g id="bullet-char-template-57354" transform="scale(0.00048828125,-0.00048828125)">
   <path d="M 8,1128 L 1137,1128 1137,0 8,0 8,1128 Z"/>
  </g>
  <g id="bullet-char-template-10146" transform="scale(0.00048828125,-0.00048828125)">
   <path d="M 174,0 L 602,739 174,1481 1456,739 174,0 Z M 1358,739 L 309,1346 659,739 1358,739 Z"/>
  </g>
  <g id="bullet-char-template-10132" transform="scale(0.00048828125,-0.00048828125)">
   <path d="M 2015,739 L 1276,0 717,0 1260,543 174,543 174,936 1260,936 717,1481 1274,1481 2015,739 Z"/>
  </g>
  <g id="bullet-char-template-10007" transform="scale(0.00048828125,-0.00048828125)">
   <path d="M 0,-2 C -7,14 -16,27 -25,37 L 356,567 C 262,823 215,952 215,954 215,979 228,992 255,992 264,992 276,990 289,987 310,991 331,999 354,1012 L 381,999 492,748 772,1049 836,1024 860,1049 C 881,1039 901,1025 922,1006 886,937 835,863 770,784 769,783 710,716 594,584 L 774,223 C 774,196 753,168 711,139 L 727,119 C 717,90 699,76 672,76 641,76 570,178 457,381 L 164,-76 C 142,-110 111,-127 72,-127 30,-127 9,-110 8,-76 1,-67 -2,-52 -2,-32 -2,-23 -1,-13 0,-2 Z"/>
  </g>
  <g id="bullet-char-template-10004" transform="scale(0.00048828125,-0.00048828125)">
   <path d="M 285,-33 C 182,-33 111,30 74,156 52,228 41,333 41,471 41,549 55,616 82,672 116,743 169,778 240,778 293,778 328,747 346,684 L 369,508 C 377,444 397,411 428,410 L 1163,1116 C 1174,1127 1196,1133 1229,1133 1271,1133 1292,1118 1292,1087 L 1292,965 C 1292,929 1282,901 1262,881 L 442,47 C 390,-6 338,-33 285,-33 Z"/>
  </g>
  <g id="bullet-char-template-9679" transform="scale(0.00048828125,-0.00048828125)">
   <path d="M 813,0 C 632,0 489,54 383,161 276,268 223,411 223,592 223,773 276,916 383,1023 489,1130 632,1184 813,1184 992,1184 1136,1130 1245,1023 1353,916 1407,772 1407,592 1407,412 1353,268 1245,161 1136,54 992,0 813,0 Z"/>
  </g>
  <g id="bullet-char-template-8226" transform="scale(0.00048828125,-0.00048828125)">
   <path d="M 346,457 C 273,457 209,483 155,535 101,586 74,649 74,723 74,796 101,859 155,911 209,963 273,989 346,989 419,989 480,963 531,910 582,859 608,796 608,723 608,648 583,586 532,535 482,483 420,457 346,457 Z"/>
  </g>
  <g id="bullet-char-template-8211" transform="scale(0.00048828125,-0.00048828125)">
   <path d="M -4,459 L 1135,459 1135,606 -4,606 -4,459 Z"/>
  </g>
  <g id="bullet-char-template-61548" transform="scale(0.00048828125,-0.00048828125)">
   <path d="M 173,740 C 173,903 231,1043 346,1159 462,1274 601,1332 765,1332 928,1332 1067,1274 1183,1159 1299,1043 1357,903 1357,740 1357,577 1299,437 1183,322 1067,206 928,148 765,148 601,148 462,206 346,322 231,437 173,577 173,740 Z"/>
  </g>
 </defs>
 <defs class="TextEmbeddedBitmaps"/>
 <g>
  <g id="id2" class="Master_Slide">
   <g id="bg-id2" class="Background"/>
   <g id="bo-id2" class="BackgroundObjects"/>
  </g>
 </g>
 <g class="SlideGroup">
  <g>
   <g id="container-id1">
    <g id="id1" class="Slide" clip-path="url(#presentation_clip_path)">
     <g class="Page">
      <g class="com.sun.star.drawing.ClosedBezierShape">
       <g id="id3">
        <rect class="BoundingBox" stroke="none" fill="none" x="1499" y="7214" width="195" height="186"/>
        <path fill="rgb(136,136,136)" stroke="none" d="M 1692,7307 C 1692,7324 1689,7338 1680,7353 1670,7367 1659,7378 1644,7387 1629,7396 1613,7399 1596,7399 1577,7399 1563,7396 1547,7387 1532,7378 1521,7367 1512,7353 1503,7338 1499,7324 1499,7307 1499,7289 1503,7276 1512,7260 1521,7245 1532,7235 1547,7227 1563,7218 1577,7214 1596,7214 1613,7214 1629,7218 1644,7227 1659,7235 1670,7245 1680,7260 1689,7276 1692,7289 1692,7307 Z"/>
       </g>
      </g>
      <g class="com.sun.star.drawing.PolyPolygonShape">
       <g id="id4">
        <rect class="BoundingBox" stroke="none" fill="none" x="7505" y="7750" width="1646" height="115"/>
        <path fill="rgb(136,136,136)" stroke="none" d="M 7505,7750 L 7505,7864 7605,7864 7605,7750 7505,7750 Z M 7705,7750 L 7705,7864 9150,7864 9150,7750 7705,7750 Z"/>
       </g>
      </g>
      <g class="com.sun.star.drawing.ClosedBezierShape">
       <g id="id5">
        <rect class="BoundingBox" stroke="none" fill="none" x="7163" y="7398" width="2330" height="1697"/>
        <path fill="none" stroke="rgb(102,102,102)" stroke-width="71" stroke-linejoin="miter" d="M 9456,8797 C 9456,9058 9352,9055 9085,9058 L 7571,9058 C 7303,9055 7199,9058 7199,8797 L 7199,7695 C 7199,7434 7303,7437 7571,7434 L 9085,7434 C 9352,7437 9456,7434 9456,7695 L 9456,8797 Z"/>
       </g>
      </g>
      <g class="com.sun.star.drawing.PolyPolygonShape">
       <g id="id6">
        <rect class="BoundingBox" stroke="none" fill="none" x="9962" y="7988" width="801" height="128"/>
        <path fill="rgb(136,136,136)" stroke="none" d="M 10362,8115 L 9962,8115 9962,7989 10762,7989 10762,8115 10362,8115 Z"/>
       </g>
      </g>
      <g class="com.sun.star.drawing.PolyPolygonShape">
       <g id="id7">
        <rect class="BoundingBox" stroke="none" fill="none" x="10655" y="8030" width="75" height="47"/>
        <path fill="rgb(255,255,255)" stroke="none" d="M 10692,8076 L 10655,8076 10655,8030 10729,8030 10729,8076 10692,8076 Z"/>
       </g>
      </g>
      <g class="com.sun.star.drawing.ClosedBezierShape">
       <g id="id8">
        <rect class="BoundingBox" stroke="none" fill="none" x="7539" y="6804" width="534" height="496"/>
        <path fill="rgb(233,84,32)" stroke="none" d="M 8072,6804 C 8072,6804 7968,7055 7805,7299 7643,7055 7539,6804 7539,6804 L 7805,6804 8072,6804 Z"/>
       </g>
      </g>
      <g class="com.sun.star.drawing.PolyPolygonShape">
       <g id="id9">
        <rect class="BoundingBox" stroke="none" fill="none" x="7505" y="8618" width="1646" height="116"/>
        <path fill="rgb(136,136,136)" stroke="none" d="M 7505,8619 L 7505,8733 7605,8733 7605,8619 7505,8619 Z M 7705,8619 L 7705,8733 9150,8733 9150,8619 7705,8619 Z"/>
       </g>
      </g>
      <g class="com.sun.star.drawing.PolyPolygonShape">
       <g id="id10">
        <rect class="BoundingBox" stroke="none" fill="none" x="9962" y="8278" width="801" height="127"/>
        <path fill="rgb(136,136,136)" stroke="none" d="M 10362,8404 L 9962,8404 9962,8278 10762,8278 10762,8404 10362,8404 Z"/>
       </g>
      </g>
      <g class="com.sun.star.drawing.PolyPolygonShape">
       <g id="id11">
        <rect class="BoundingBox" stroke="none" fill="none" x="10655" y="8321" width="75" height="47"/>
        <path fill="rgb(255,255,255)" stroke="none" d="M 10692,8367 L 10655,8367 10655,8321 10729,8321 10729,8367 10692,8367 Z"/>
       </g>
      </g>
      <g class="com.sun.star.drawing.PolyPolygonShape">
       <g id="id12">
        <rect class="BoundingBox" stroke="none" fill="none" x="9962" y="8569" width="801" height="127"/>
        <path fill="rgb(136,136,136)" stroke="none" d="M 10362,8695 L 9962,8695 9962,8569 10762,8569 10762,8695 10362,8695 Z"/>
       </g>
      </g>
      <g class="com.sun.star.drawing.PolyPolygonShape">
       <g id="id13">
        <rect class="BoundingBox" stroke="none" fill="none" x="10655" y="8610" width="75" height="47"/>
        <path fill="rgb(255,255,255)" stroke="none" d="M 10692,8656 L 10655,8656 10655,8610 10729,8610 10729,8656 10692,8656 Z"/>
       </g>
      </g>
      <g class="com.sun.star.drawing.ClosedBezierShape">
       <g id="id14">
        <rect class="BoundingBox" stroke="none" fill="none" x="6499" y="4399" width="534" height="496"/>
        <path fill="rgb(233,84,32)" stroke="none" d="M 7032,4894 C 7032,4894 6928,4643 6765,4399 6603,4643 6499,4894 6499,4894 L 6765,4894 7032,4894 Z"/>
       </g>
      </g>
      <g class="com.sun.star.drawing.ClosedBezierShape">
       <g id="id15">
        <rect class="BoundingBox" stroke="none" fill="none" x="1807" y="7214" width="194" height="186"/>
        <path fill="rgb(136,136,136)" stroke="none" d="M 2000,7307 C 2000,7324 1997,7338 1988,7353 1978,7367 1967,7378 1952,7387 1937,7396 1921,7399 1904,7399 1885,7399 1871,7396 1855,7387 1840,7378 1829,7367 1820,7353 1811,7338 1807,7324 1807,7307 1807,7289 1811,7276 1820,7260 1829,7245 1840,7235 1855,7227 1871,7218 1885,7214 1904,7214 1921,7214 1937,7218 1952,7227 1967,7235 1978,7245 1988,7260 1997,7276 2000,7289 2000,7307 Z"/>
       </g>
      </g>
      <g class="com.sun.star.drawing.ClosedBezierShape">
       <g id="id16">
        <rect class="BoundingBox" stroke="none" fill="none" x="2115" y="7214" width="194" height="186"/>
        <path fill="rgb(136,136,136)" stroke="none" d="M 2308,7307 C 2308,7324 2305,7338 2296,7353 2286,7367 2275,7378 2260,7387 2245,7396 2229,7399 2212,7399 2193,7399 2179,7396 2163,7387 2148,7378 2137,7367 2128,7353 2119,7338 2115,7324 2115,7307 2115,7289 2119,7276 2128,7260 2137,7245 2148,7235 2163,7227 2179,7218 2193,7214 2212,7214 2229,7214 2245,7218 2260,7227 2275,7235 2286,7245 2296,7260 2305,7276 2308,7289 2308,7307 Z"/>
       </g>
      </g>
      <g class="com.sun.star.drawing.PolyPolygonShape">
       <g id="id17">
        <rect class="BoundingBox" stroke="none" fill="none" x="7505" y="8334" width="1646" height="115"/>
        <path fill="rgb(136,136,136)" stroke="none" d="M 7505,8334 L 7505,8448 7605,8448 7605,8334 7505,8334 Z M 7705,8334 L 7705,8448 9150,8448 9150,8334 7705,8334 Z"/>
       </g>
      </g>
      <g class="com.sun.star.drawing.PolyPolygonShape">
       <g id="id18">
        <rect class="BoundingBox" stroke="none" fill="none" x="7505" y="8035" width="1646" height="115"/>
        <path fill="rgb(136,136,136)" stroke="none" d="M 7505,8035 L 7505,8149 7605,8149 7605,8035 7505,8035 Z M 7705,8035 L 7705,8149 9150,8149 9150,8035 7705,8035 Z"/>
       </g>
      </g>
      <g class="Group">
       <g class="com.sun.star.drawing.ClosedBezierShape">
        <g id="id19">
         <rect class="BoundingBox" stroke="none" fill="none" x="1228" y="3005" width="305" height="394"/>
         <path fill="rgb(59,59,59)" stroke="none" d="M 1518,3006 C 1506,3018 1493,3033 1478,3048 1464,3064 1448,3080 1432,3096 1416,3113 1401,3129 1385,3145 1369,3160 1354,3175 1340,3189 1356,3200 1373,3214 1392,3230 1410,3247 1427,3265 1445,3283 1462,3302 1478,3322 1493,3341 1509,3361 1521,3379 1531,3397 L 1467,3397 C 1456,3379 1443,3362 1428,3344 1413,3326 1398,3309 1382,3292 1365,3276 1349,3261 1332,3247 1315,3233 1299,3221 1283,3211 L 1283,3397 1229,3397 1229,3006 1283,3006 1283,3178 C 1296,3166 1311,3152 1327,3136 1342,3121 1358,3105 1373,3089 1389,3073 1403,3058 1417,3044 1431,3029 1442,3017 1452,3006 L 1518,3006 Z"/>
        </g>
       </g>
       <g class="com.sun.star.drawing.ClosedBezierShape">
        <g id="id20">
         <rect class="BoundingBox" stroke="none" fill="none" x="1568" y="3103" width="239" height="301"/>
         <path fill="rgb(59,59,59)" stroke="none" d="M 1806,3388 C 1794,3391 1778,3395 1758,3398 1738,3401 1715,3403 1689,3403 1667,3403 1648,3400 1632,3393 1617,3387 1605,3377 1595,3365 1586,3353 1579,3339 1575,3322 1571,3306 1569,3288 1569,3268 L 1569,3103 1621,3103 1621,3256 C 1621,3292 1627,3318 1638,3333 1649,3348 1668,3356 1695,3356 1701,3356 1707,3356 1713,3356 1719,3356 1724,3356 1729,3355 1735,3355 1740,3354 1744,3354 1748,3353 1751,3352 1753,3352 L 1753,3103 1806,3103 1806,3388 Z"/>
        </g>
       </g>
       <g class="com.sun.star.drawing.ClosedBezierShape">
        <g id="id21">
         <rect class="BoundingBox" stroke="none" fill="none" x="1894" y="3097" width="400" height="301"/>
         <path fill="rgb(59,59,59)" stroke="none" d="M 1894,3112 C 1906,3109 1922,3105 1942,3102 1962,3099 1984,3097 2010,3097 2029,3097 2045,3100 2058,3105 2070,3110 2081,3117 2090,3127 2092,3125 2097,3122 2102,3119 2108,3116 2115,3112 2123,3109 2131,3106 2141,3103 2151,3101 2161,3098 2172,3097 2183,3097 2206,3097 2224,3100 2239,3107 2253,3113 2264,3123 2272,3135 2280,3147 2286,3161 2289,3178 2291,3194 2293,3212 2293,3232 L 2293,3397 2240,3397 2240,3243 C 2240,3226 2240,3211 2238,3199 2236,3186 2233,3176 2228,3168 2224,3159 2217,3153 2209,3149 2201,3145 2191,3143 2178,3143 2160,3143 2146,3146 2134,3150 2123,3155 2115,3159 2111,3163 2114,3173 2116,3184 2117,3195 2119,3207 2120,3219 2120,3232 L 2120,3397 2067,3397 2067,3244 C 2067,3226 2066,3212 2064,3199 2063,3187 2059,3177 2055,3168 2050,3160 2043,3154 2035,3150 2027,3146 2017,3144 2005,3144 1999,3144 1994,3144 1988,3144 1982,3144 1976,3144 1971,3145 1965,3145 1960,3146 1956,3147 1951,3148 1948,3148 1947,3149 L 1947,3397 1894,3397 1894,3112 Z"/>
        </g>
       </g>
       <g class="com.sun.star.drawing.ClosedBezierShape">
        <g id="id22">
         <rect class="BoundingBox" stroke="none" fill="none" x="2360" y="3095" width="230" height="309"/>
         <path fill="rgb(59,59,59)" stroke="none" d="M 2480,3358 C 2493,3358 2504,3358 2513,3358 2523,3358 2531,3357 2537,3355 L 2537,3268 C 2534,3266 2527,3264 2519,3263 2511,3262 2500,3261 2488,3261 2480,3261 2472,3262 2463,3263 2454,3264 2446,3266 2439,3270 2432,3273 2425,3278 2421,3284 2416,3290 2413,3298 2413,3309 2413,3327 2419,3340 2431,3347 2443,3355 2460,3358 2480,3358 Z M 2476,3096 C 2497,3096 2515,3099 2529,3104 2544,3109 2555,3117 2564,3127 2573,3137 2579,3149 2583,3163 2587,3176 2589,3192 2589,3208 L 2589,3392 C 2584,3392 2578,3393 2570,3395 2562,3396 2553,3397 2542,3398 2532,3400 2521,3401 2509,3402 2498,3403 2486,3403 2474,3403 2458,3403 2442,3401 2428,3398 2415,3395 2403,3389 2392,3382 2382,3375 2374,3365 2369,3353 2363,3341 2360,3326 2360,3309 2360,3293 2364,3279 2370,3268 2377,3256 2386,3247 2397,3239 2408,3232 2421,3227 2436,3224 2451,3220 2467,3219 2484,3219 2489,3219 2494,3219 2500,3219 2506,3220 2511,3221 2516,3222 2521,3223 2526,3224 2529,3224 2533,3225 2536,3226 2537,3226 L 2537,3211 C 2537,3203 2536,3194 2535,3185 2533,3177 2529,3169 2524,3163 2519,3156 2513,3151 2504,3147 2496,3143 2485,3141 2471,3141 2454,3141 2439,3142 2426,3145 2413,3147 2403,3150 2397,3152 L 2391,3109 C 2397,3106 2409,3103 2425,3100 2440,3097 2457,3096 2476,3096 Z"/>
        </g>
       </g>
       <g class="com.sun.star.drawing.ClosedBezierShape">
        <g id="id23">
         <rect class="BoundingBox" stroke="none" fill="none" x="2673" y="3097" width="238" height="301"/>
         <path fill="rgb(59,59,59)" stroke="none" d="M 2673,3112 C 2685,3109 2701,3106 2721,3102 2741,3099 2764,3097 2790,3097 2813,3097 2833,3100 2848,3107 2863,3114 2876,3123 2885,3135 2894,3147 2901,3161 2904,3177 2908,3194 2910,3212 2910,3232 L 2910,3397 2858,3397 2858,3244 C 2858,3226 2856,3210 2854,3198 2851,3185 2847,3174 2842,3167 2836,3159 2829,3153 2819,3149 2810,3146 2798,3144 2784,3144 2779,3144 2773,3144 2767,3144 2761,3144 2755,3144 2750,3145 2744,3145 2739,3146 2735,3147 2731,3148 2727,3148 2726,3149 L 2726,3397 2673,3397 2673,3112 Z"/>
        </g>
       </g>
       <g class="com.sun.star.drawing.ClosedBezierShape">
        <g id="id24">
         <rect class="BoundingBox" stroke="none" fill="none" x="2978" y="3095" width="277" height="311"/>
         <path fill="rgb(59,59,59)" stroke="none" d="M 3254,3250 C 3254,3273 3251,3294 3244,3313 3237,3332 3228,3348 3215,3362 3203,3375 3189,3386 3172,3393 3155,3400 3136,3404 3116,3404 3096,3404 3078,3400 3061,3393 3044,3386 3030,3375 3017,3362 3005,3348 2996,3332 2989,3313 2982,3294 2979,3273 2979,3250 2979,3227 2982,3206 2989,3187 2996,3168 3005,3152 3017,3138 3030,3124 3044,3114 3061,3107 3078,3099 3096,3096 3116,3096 3136,3096 3155,3099 3172,3107 3189,3114 3203,3124 3215,3138 3228,3152 3237,3168 3244,3187 3251,3206 3254,3227 3254,3250 Z M 3199,3250 C 3199,3217 3192,3190 3177,3171 3162,3152 3142,3142 3116,3142 3091,3142 3071,3152 3056,3171 3041,3190 3033,3217 3033,3250 3033,3283 3041,3309 3056,3329 3071,3348 3091,3358 3116,3358 3142,3358 3162,3348 3177,3329 3192,3309 3199,3283 3199,3250 Z"/>
        </g>
       </g>
       <g class="com.sun.star.drawing.ClosedBezierShape">
        <g id="id25">
         <rect class="BoundingBox" stroke="none" fill="none" x="3294" y="3202" width="141" height="51"/>
         <path fill="rgb(59,59,59)" stroke="none" d="M 3295,3203 C 3341,3203 3388,3203 3434,3203 3434,3219 3434,3236 3434,3252 3388,3252 3341,3252 3295,3252 3295,3236 3295,3219 3295,3203 Z"/>
        </g>
       </g>
       <g class="com.sun.star.drawing.ClosedBezierShape">
        <g id="id26">
         <rect class="BoundingBox" stroke="none" fill="none" x="3497" y="3001" width="323" height="401"/>
         <path fill="rgb(59,59,59)" stroke="none" d="M 3818,3201 C 3818,3235 3813,3265 3803,3290 3792,3315 3777,3335 3758,3352 3739,3368 3716,3380 3689,3388 3663,3397 3633,3401 3601,3401 3585,3401 3568,3400 3549,3399 3530,3397 3513,3395 3497,3391 L 3497,3012 C 3513,3008 3530,3005 3549,3004 3568,3003 3585,3002 3601,3002 3633,3002 3663,3006 3689,3014 3716,3022 3739,3034 3758,3051 3777,3067 3792,3088 3803,3113 3813,3138 3818,3167 3818,3201 Z M 3606,3352 C 3658,3352 3696,3339 3722,3312 3748,3286 3760,3249 3760,3201 3760,3154 3748,3117 3722,3090 3696,3064 3658,3051 3606,3051 3590,3051 3578,3051 3570,3051 3562,3051 3556,3051 3552,3052 L 3552,3351 C 3556,3352 3562,3352 3570,3352 3578,3352 3590,3352 3606,3352 Z"/>
        </g>
       </g>
       <g class="com.sun.star.drawing.ClosedBezierShape">
        <g id="id27">
         <rect class="BoundingBox" stroke="none" fill="none" x="3879" y="3095" width="277" height="311"/>
         <path fill="rgb(59,59,59)" stroke="none" d="M 4155,3250 C 4155,3273 4152,3294 4145,3313 4138,3332 4129,3348 4116,3362 4104,3375 4090,3386 4073,3393 4056,3400 4037,3404 4017,3404 3997,3404 3979,3400 3962,3393 3945,3386 3931,3375 3918,3362 3906,3348 3897,3332 3890,3313 3883,3294 3880,3273 3880,3250 3880,3227 3883,3206 3890,3187 3897,3168 3906,3152 3918,3138 3931,3124 3945,3114 3962,3107 3979,3099 3997,3096 4017,3096 4037,3096 4056,3099 4073,3107 4090,3114 4104,3124 4116,3138 4129,3152 4138,3168 4145,3187 4152,3206 4155,3227 4155,3250 Z M 4100,3250 C 4100,3217 4093,3190 4078,3171 4063,3152 4043,3142 4017,3142 3992,3142 3972,3152 3957,3171 3942,3190 3934,3217 3934,3250 3934,3283 3942,3309 3957,3329 3972,3348 3992,3358 4017,3358 4043,3358 4063,3348 4078,3329 4093,3309 4100,3283 4100,3250 Z"/>
        </g>
       </g>
       <g class="com.sun.star.drawing.ClosedBezierShape">
        <g id="id28">
         <rect class="BoundingBox" stroke="none" fill="none" x="4226" y="3097" width="169" height="301"/>
         <path fill="rgb(59,59,59)" stroke="none" d="M 4334,3097 C 4339,3097 4344,3098 4350,3098 4356,3099 4361,3099 4367,3100 4373,3101 4378,3102 4383,3103 4387,3104 4391,3105 4393,3106 L 4384,3151 C 4380,3150 4373,3148 4363,3146 4354,3144 4342,3143 4327,3143 4317,3143 4307,3144 4297,3146 4288,3148 4282,3150 4279,3150 L 4279,3397 4226,3397 4226,3116 C 4239,3111 4254,3107 4272,3103 4291,3099 4311,3097 4334,3097 Z"/>
        </g>
       </g>
       <g class="com.sun.star.drawing.ClosedBezierShape">
        <g id="id29">
         <rect class="BoundingBox" stroke="none" fill="none" x="4442" y="3097" width="400" height="301"/>
         <path fill="rgb(59,59,59)" stroke="none" d="M 4442,3112 C 4454,3109 4470,3105 4490,3102 4510,3099 4532,3097 4558,3097 4577,3097 4593,3100 4606,3105 4618,3110 4629,3117 4638,3127 4640,3125 4645,3122 4650,3119 4656,3116 4663,3112 4671,3109 4679,3106 4689,3103 4699,3101 4709,3098 4720,3097 4731,3097 4754,3097 4772,3100 4787,3107 4801,3113 4812,3123 4820,3135 4828,3147 4834,3161 4837,3178 4839,3194 4841,3212 4841,3232 L 4841,3397 4788,3397 4788,3243 C 4788,3226 4788,3211 4786,3199 4784,3186 4781,3176 4776,3168 4772,3159 4765,3153 4757,3149 4749,3145 4739,3143 4726,3143 4708,3143 4694,3146 4682,3150 4671,3155 4663,3159 4659,3163 4662,3173 4664,3184 4665,3195 4667,3207 4668,3219 4668,3232 L 4668,3397 4615,3397 4615,3244 C 4615,3226 4614,3212 4612,3199 4611,3187 4607,3177 4603,3168 4598,3160 4591,3154 4583,3150 4575,3146 4565,3144 4553,3144 4547,3144 4542,3144 4536,3144 4530,3144 4524,3144 4519,3145 4513,3145 4508,3146 4504,3147 4499,3148 4496,3148 4495,3149 L 4495,3397 4442,3397 4442,3112 Z"/>
        </g>
       </g>
       <g class="com.sun.star.drawing.ClosedBezierShape">
        <g id="id30">
         <rect class="BoundingBox" stroke="none" fill="none" x="4921" y="2981" width="69" height="417"/>
         <path fill="rgb(59,59,59)" stroke="none" d="M 4982,3397 L 4929,3397 4929,3103 4982,3103 4982,3397 Z M 4955,3050 C 4946,3050 4938,3047 4931,3041 4925,3034 4921,3026 4921,3016 4921,3005 4925,2997 4931,2990 4938,2984 4946,2981 4955,2981 4964,2981 4972,2984 4979,2990 4986,2997 4989,3005 4989,3016 4989,3026 4986,3034 4979,3041 4972,3047 4964,3050 4955,3050 Z"/>
        </g>
       </g>
       <g class="com.sun.star.drawing.ClosedBezierShape">
        <g id="id31">
         <rect class="BoundingBox" stroke="none" fill="none" x="5069" y="3012" width="177" height="392"/>
         <path fill="rgb(59,59,59)" stroke="none" d="M 5122,3103 L 5233,3103 5233,3147 5122,3147 5122,3283 C 5122,3297 5123,3309 5126,3319 5128,3329 5131,3336 5136,3342 5140,3347 5146,3351 5153,3353 5159,3356 5167,3357 5176,3357 5192,3357 5205,3355 5214,3351 5224,3348 5231,3345 5234,3344 L 5245,3387 C 5239,3390 5230,3393 5217,3397 5204,3401 5189,3403 5172,3403 5152,3403 5135,3400 5122,3395 5110,3390 5099,3383 5091,3373 5083,3362 5078,3350 5075,3335 5071,3320 5070,3303 5070,3283 L 5070,3021 5122,3012 5122,3103 Z"/>
        </g>
       </g>
       <g class="com.sun.star.drawing.ClosedBezierShape">
        <g id="id32">
         <rect class="BoundingBox" stroke="none" fill="none" x="5276" y="3095" width="277" height="311"/>
         <path fill="rgb(59,59,59)" stroke="none" d="M 5552,3250 C 5552,3273 5549,3294 5542,3313 5535,3332 5526,3348 5513,3362 5501,3375 5487,3386 5470,3393 5453,3400 5434,3404 5414,3404 5394,3404 5376,3400 5359,3393 5342,3386 5328,3375 5315,3362 5303,3348 5294,3332 5287,3313 5280,3294 5277,3273 5277,3250 5277,3227 5280,3206 5287,3187 5294,3168 5303,3152 5315,3138 5328,3124 5342,3114 5359,3107 5376,3099 5394,3096 5414,3096 5434,3096 5453,3099 5470,3107 5487,3114 5501,3124 5513,3138 5526,3152 5535,3168 5542,3187 5549,3206 5552,3227 5552,3250 Z M 5497,3250 C 5497,3217 5490,3190 5475,3171 5460,3152 5440,3142 5414,3142 5389,3142 5369,3152 5354,3171 5339,3190 5331,3217 5331,3250 5331,3283 5339,3309 5354,3329 5369,3348 5389,3358 5414,3358 5440,3358 5460,3348 5475,3329 5490,3309 5497,3283 5497,3250 Z"/>
        </g>
       </g>
       <g class="com.sun.star.drawing.ClosedBezierShape">
        <g id="id33">
         <rect class="BoundingBox" stroke="none" fill="none" x="5623" y="3097" width="169" height="301"/>
         <path fill="rgb(59,59,59)" stroke="none" d="M 5731,3097 C 5736,3097 5741,3098 5747,3098 5753,3099 5758,3099 5764,3100 5770,3101 5775,3102 5780,3103 5784,3104 5788,3105 5790,3106 L 5781,3151 C 5777,3150 5770,3148 5760,3146 5751,3144 5739,3143 5724,3143 5714,3143 5704,3144 5694,3146 5685,3148 5679,3150 5676,3150 L 5676,3397 5623,3397 5623,3116 C 5636,3111 5651,3107 5669,3103 5688,3099 5708,3097 5731,3097 Z"/>
        </g>
       </g>
       <g class="com.sun.star.drawing.ClosedBezierShape">
        <g id="id34">
         <rect class="BoundingBox" stroke="none" fill="none" x="5808" y="3103" width="271" height="401"/>
         <path fill="rgb(59,59,59)" stroke="none" d="M 5818,3452 C 5822,3453 5827,3455 5834,3457 5840,3459 5847,3460 5853,3460 5874,3460 5890,3455 5902,3446 5913,3436 5924,3421 5933,3401 5910,3356 5888,3308 5867,3257 5847,3206 5830,3155 5816,3103 L 5872,3103 C 5877,3120 5882,3138 5887,3158 5893,3177 5900,3198 5907,3218 5914,3239 5922,3260 5930,3280 5938,3301 5947,3321 5956,3340 5970,3301 5983,3262 5993,3223 6004,3184 6014,3144 6023,3103 L 6077,3103 C 6064,3158 6049,3212 6032,3263 6015,3314 5998,3361 5978,3406 5971,3423 5963,3437 5955,3450 5947,3462 5938,3472 5928,3480 5918,3488 5907,3494 5895,3497 5883,3501 5869,3503 5854,3503 5850,3503 5845,3503 5841,3502 5836,3502 5832,3501 5828,3500 5823,3499 5819,3498 5816,3497 5812,3496 5810,3495 5808,3494 L 5818,3452 Z"/>
        </g>
       </g>
       <g class="com.sun.star.drawing.ClosedBezierShape">
        <g id="id35">
         <rect class="BoundingBox" stroke="none" fill="none" x="1228" y="3632" width="323" height="401"/>
         <path fill="rgb(59,59,59)" stroke="none" d="M 1549,3832 C 1549,3866 1544,3896 1534,3921 1523,3946 1508,3966 1489,3983 1470,3999 1447,4011 1420,4019 1394,4028 1364,4032 1332,4032 1316,4032 1299,4031 1280,4030 1261,4028 1244,4026 1229,4022 L 1229,3643 C 1244,3639 1261,3636 1280,3635 1299,3634 1316,3633 1332,3633 1364,3633 1394,3637 1420,3645 1447,3653 1470,3665 1489,3682 1508,3698 1523,3719 1534,3744 1544,3769 1549,3798 1549,3832 Z M 1337,3983 C 1389,3983 1427,3970 1453,3943 1479,3917 1491,3880 1491,3832 1491,3785 1479,3748 1453,3721 1427,3695 1389,3682 1337,3682 1321,3682 1309,3682 1301,3682 1293,3682 1287,3682 1283,3683 L 1283,3982 C 1287,3983 1293,3983 1301,3983 1309,3983 1321,3983 1337,3983 Z"/>
        </g>
       </g>
       <g class="com.sun.star.drawing.ClosedBezierShape">
        <g id="id36">
         <rect class="BoundingBox" stroke="none" fill="none" x="1610" y="3726" width="277" height="310"/>
         <path fill="rgb(59,59,59)" stroke="none" d="M 1886,3881 C 1886,3904 1883,3925 1876,3944 1869,3963 1860,3979 1847,3993 1835,4006 1821,4017 1804,4024 1787,4031 1768,4035 1748,4035 1728,4035 1710,4031 1693,4024 1676,4017 1662,4006 1649,3993 1637,3979 1628,3963 1621,3944 1614,3925 1611,3904 1611,3881 1611,3858 1614,3837 1621,3818 1628,3799 1637,3783 1649,3769 1662,3755 1676,3745 1693,3738 1710,3730 1728,3727 1748,3727 1768,3727 1787,3730 1804,3738 1821,3745 1835,3755 1847,3769 1860,3783 1869,3799 1876,3818 1883,3837 1886,3858 1886,3881 Z M 1831,3881 C 1831,3848 1824,3821 1809,3802 1794,3783 1774,3773 1748,3773 1723,3773 1703,3783 1688,3802 1673,3821 1665,3848 1665,3881 1665,3914 1673,3940 1688,3960 1703,3979 1723,3989 1748,3989 1774,3989 1794,3979 1809,3960 1824,3940 1831,3914 1831,3881 Z"/>
        </g>
       </g>
       <g class="com.sun.star.drawing.ClosedBezierShape">
        <g id="id37">
         <rect class="BoundingBox" stroke="none" fill="none" x="1940" y="3727" width="224" height="310"/>
         <path fill="rgb(59,59,59)" stroke="none" d="M 2085,4035 C 2061,4035 2040,4031 2022,4024 2004,4016 1989,4006 1977,3992 1965,3978 1956,3962 1950,3944 1944,3925 1941,3904 1941,3882 1941,3859 1944,3839 1951,3820 1957,3801 1967,3785 1979,3771 1991,3757 2005,3746 2023,3739 2040,3731 2060,3727 2081,3727 2094,3727 2108,3728 2121,3730 2134,3733 2146,3736 2158,3741 L 2147,3786 C 2139,3782 2130,3779 2119,3777 2109,3774 2098,3773 2086,3773 2057,3773 2034,3783 2019,3801 2003,3819 1995,3846 1995,3882 1995,3898 1997,3912 2001,3925 2004,3939 2010,3950 2018,3959 2025,3969 2035,3976 2047,3981 2059,3986 2074,3989 2091,3989 2105,3989 2118,3987 2129,3985 2140,3982 2149,3979 2156,3976 L 2163,4020 C 2160,4022 2156,4024 2150,4026 2144,4027 2138,4029 2131,4030 2124,4032 2116,4033 2108,4034 2100,4035 2092,4035 2085,4035 Z"/>
        </g>
       </g>
       <g class="com.sun.star.drawing.ClosedBezierShape">
        <g id="id38">
         <rect class="BoundingBox" stroke="none" fill="none" x="2216" y="3734" width="239" height="301"/>
         <path fill="rgb(59,59,59)" stroke="none" d="M 2454,4019 C 2442,4022 2426,4026 2406,4029 2386,4032 2363,4034 2337,4034 2315,4034 2296,4031 2280,4024 2265,4018 2253,4008 2243,3996 2234,3984 2227,3970 2223,3953 2219,3937 2217,3919 2217,3899 L 2217,3734 2269,3734 2269,3887 C 2269,3923 2275,3949 2286,3964 2297,3979 2316,3987 2343,3987 2349,3987 2355,3987 2361,3987 2367,3987 2372,3987 2377,3986 2383,3986 2388,3985 2392,3985 2396,3984 2399,3983 2401,3983 L 2401,3734 2454,3734 2454,4019 Z"/>
        </g>
       </g>
       <g class="com.sun.star.drawing.ClosedBezierShape">
        <g id="id39">
         <rect class="BoundingBox" stroke="none" fill="none" x="2542" y="3728" width="400" height="302"/>
         <path fill="rgb(59,59,59)" stroke="none" d="M 2542,3743 C 2554,3740 2570,3736 2590,3733 2610,3730 2632,3728 2658,3728 2677,3728 2693,3731 2706,3736 2718,3741 2729,3748 2738,3758 2740,3756 2745,3753 2750,3750 2756,3747 2763,3743 2771,3740 2779,3737 2789,3734 2799,3732 2809,3729 2820,3728 2831,3728 2854,3728 2872,3731 2887,3738 2901,3744 2912,3754 2920,3766 2928,3778 2934,3792 2937,3809 2939,3825 2941,3843 2941,3863 L 2941,4028 2888,4028 2888,3874 C 2888,3857 2888,3842 2886,3830 2884,3817 2881,3807 2876,3799 2872,3790 2865,3784 2857,3780 2849,3776 2839,3774 2826,3774 2808,3774 2794,3777 2782,3781 2771,3786 2763,3790 2759,3794 2762,3804 2764,3815 2765,3826 2767,3838 2768,3850 2768,3863 L 2768,4028 2715,4028 2715,3875 C 2715,3857 2714,3843 2712,3830 2711,3818 2707,3808 2703,3799 2698,3791 2691,3785 2683,3781 2675,3777 2665,3775 2653,3775 2647,3775 2642,3775 2636,3775 2630,3775 2624,3775 2619,3776 2613,3776 2608,3777 2604,3778 2599,3779 2596,3779 2595,3780 L 2595,4028 2542,4028 2542,3743 Z"/>
        </g>
       </g>
       <g class="com.sun.star.drawing.ClosedBezierShape">
        <g id="id40">
         <rect class="BoundingBox" stroke="none" fill="none" x="3011" y="3727" width="258" height="309"/>
         <path fill="rgb(59,59,59)" stroke="none" d="M 3012,3882 C 3012,3856 3016,3833 3023,3814 3031,3795 3041,3779 3053,3766 3065,3753 3080,3743 3096,3737 3112,3731 3129,3727 3145,3727 3185,3727 3215,3740 3236,3764 3257,3789 3268,3826 3268,3877 3268,3879 3268,3882 3268,3886 3268,3889 3268,3892 3267,3895 L 3066,3895 C 3069,3926 3078,3949 3093,3965 3108,3981 3132,3989 3165,3989 3184,3989 3199,3987 3212,3984 3224,3981 3234,3978 3240,3975 L 3248,4019 C 3241,4022 3230,4026 3214,4029 3198,4033 3180,4035 3160,4035 3134,4035 3112,4031 3093,4023 3075,4016 3059,4005 3047,3992 3035,3978 3026,3962 3021,3943 3015,3925 3012,3904 3012,3882 Z M 3213,3853 C 3213,3829 3208,3810 3195,3795 3183,3780 3166,3772 3145,3772 3133,3772 3122,3774 3113,3779 3104,3784 3096,3790 3090,3797 3083,3805 3078,3813 3075,3823 3071,3833 3069,3843 3068,3853 L 3213,3853 Z"/>
        </g>
       </g>
       <g class="com.sun.star.drawing.ClosedBezierShape">
        <g id="id41">
         <rect class="BoundingBox" stroke="none" fill="none" x="3342" y="3728" width="238" height="302"/>
         <path fill="rgb(59,59,59)" stroke="none" d="M 3342,3743 C 3354,3740 3370,3737 3390,3733 3410,3730 3433,3728 3459,3728 3482,3728 3502,3731 3517,3738 3532,3745 3545,3754 3554,3766 3563,3778 3570,3792 3573,3808 3577,3825 3579,3843 3579,3863 L 3579,4028 3527,4028 3527,3875 C 3527,3857 3525,3841 3523,3829 3520,3816 3516,3805 3511,3798 3505,3790 3498,3784 3488,3780 3479,3777 3467,3775 3453,3775 3448,3775 3442,3775 3436,3775 3430,3775 3424,3775 3419,3776 3413,3776 3408,3777 3404,3778 3400,3779 3396,3779 3395,3780 L 3395,4028 3342,4028 3342,3743 Z"/>
        </g>
       </g>
       <g class="com.sun.star.drawing.ClosedBezierShape">
        <g id="id42">
         <rect class="BoundingBox" stroke="none" fill="none" x="3659" y="3643" width="177" height="392"/>
         <path fill="rgb(59,59,59)" stroke="none" d="M 3712,3734 L 3823,3734 3823,3778 3712,3778 3712,3914 C 3712,3928 3713,3940 3716,3950 3718,3960 3721,3967 3726,3973 3730,3978 3736,3982 3743,3984 3749,3987 3757,3988 3766,3988 3782,3988 3795,3986 3804,3982 3814,3979 3821,3976 3824,3975 L 3835,4018 C 3829,4021 3820,4024 3807,4028 3794,4032 3779,4034 3762,4034 3742,4034 3725,4031 3712,4026 3699,4021 3689,4014 3681,4004 3673,3993 3668,3981 3665,3966 3661,3951 3660,3934 3660,3914 L 3660,3652 3712,3643 3712,3734 Z"/>
        </g>
       </g>
       <g class="com.sun.star.drawing.ClosedBezierShape">
        <g id="id43">
         <rect class="BoundingBox" stroke="none" fill="none" x="3992" y="3627" width="266" height="410"/>
         <path fill="rgb(59,59,59)" stroke="none" d="M 4113,3989 C 4170,3989 4199,3969 4199,3930 4199,3918 4197,3908 4191,3899 4186,3891 4179,3883 4171,3877 4162,3871 4152,3865 4141,3861 4130,3856 4118,3852 4106,3847 4092,3842 4078,3837 4065,3831 4053,3824 4041,3817 4032,3809 4023,3800 4015,3790 4010,3778 4004,3767 4002,3753 4002,3736 4002,3702 4013,3675 4037,3656 4060,3637 4092,3627 4133,3627 4157,3627 4178,3630 4198,3635 4217,3640 4231,3645 4240,3651 L 4223,3696 C 4215,3691 4203,3686 4187,3681 4172,3677 4154,3674 4133,3674 4123,3674 4113,3676 4104,3678 4095,3680 4087,3683 4080,3688 4073,3693 4068,3698 4064,3705 4060,3712 4058,3720 4058,3730 4058,3740 4060,3749 4064,3756 4068,3764 4074,3770 4082,3775 4089,3781 4098,3786 4108,3790 4118,3795 4129,3799 4141,3804 4158,3811 4173,3817 4187,3824 4202,3831 4214,3839 4224,3848 4234,3858 4242,3869 4248,3882 4254,3895 4257,3911 4257,3929 4257,3964 4244,3990 4219,4008 4194,4027 4159,4036 4113,4036 4098,4036 4084,4035 4071,4033 4058,4031 4046,4028 4036,4026 4026,4023 4017,4020 4010,4017 4002,4013 3997,4011 3993,4008 L 4009,3963 C 4018,3968 4031,3974 4048,3980 4066,3986 4088,3989 4113,3989 Z"/>
        </g>
       </g>
       <g class="com.sun.star.drawing.ClosedBezierShape">
        <g id="id44">
         <rect class="BoundingBox" stroke="none" fill="none" x="4276" y="3734" width="271" height="401"/>
         <path fill="rgb(59,59,59)" stroke="none" d="M 4286,4083 C 4290,4084 4295,4086 4302,4088 4308,4090 4315,4090 4321,4091 4342,4090 4358,4086 4370,4077 4381,4067 4392,4052 4401,4032 4378,3987 4356,3939 4335,3888 4315,3837 4298,3786 4284,3734 L 4340,3734 C 4345,3751 4350,3769 4355,3789 4361,3808 4368,3829 4375,3849 4382,3870 4390,3891 4398,3911 4406,3932 4415,3952 4424,3971 4438,3932 4451,3893 4461,3854 4472,3815 4482,3775 4491,3734 L 4545,3734 C 4532,3789 4517,3843 4500,3894 4483,3945 4466,3992 4446,4037 4439,4054 4431,4068 4423,4081 4415,4093 4406,4103 4396,4111 4386,4119 4375,4125 4363,4128 4351,4132 4337,4134 4322,4134 4318,4134 4313,4134 4309,4133 4304,4133 4300,4132 4296,4131 4291,4130 4287,4129 4284,4128 4280,4127 4278,4126 4276,4125 L 4286,4083 Z"/>
        </g>
       </g>
       <g class="com.sun.star.drawing.ClosedBezierShape">
        <g id="id45">
         <rect class="BoundingBox" stroke="none" fill="none" x="4576" y="3727" width="209" height="310"/>
         <path fill="rgb(59,59,59)" stroke="none" d="M 4667,3990 C 4689,3990 4705,3988 4715,3982 4725,3976 4731,3967 4731,3955 4731,3942 4725,3932 4715,3924 4705,3917 4688,3908 4665,3899 4654,3894 4643,3890 4633,3885 4622,3880 4613,3875 4606,3868 4598,3862 4592,3854 4588,3845 4583,3836 4581,3825 4581,3812 4581,3786 4591,3765 4610,3750 4629,3735 4655,3727 4688,3727 4697,3727 4705,3727 4713,3728 4721,3729 4729,3730 4736,3732 4743,3733 4750,3735 4755,3736 4761,3738 4765,3739 4768,3740 L 4758,3785 C 4753,3782 4744,3779 4732,3776 4720,3773 4705,3771 4688,3771 4674,3771 4661,3774 4650,3780 4639,3786 4634,3795 4634,3807 4634,3814 4635,3819 4637,3824 4640,3829 4643,3834 4648,3837 4654,3841 4660,3845 4667,3848 4675,3852 4684,3855 4694,3859 4708,3864 4721,3870 4732,3875 4743,3880 4752,3886 4760,3893 4767,3899 4773,3908 4777,3917 4781,3927 4784,3939 4784,3952 4784,3980 4773,4000 4753,4014 4733,4028 4705,4035 4667,4035 4641,4035 4621,4033 4606,4029 4592,4024 4582,4021 4577,4019 L 4586,3973 C 4592,3976 4602,3979 4615,3984 4628,3988 4646,3990 4667,3990 Z"/>
        </g>
       </g>
       <g class="com.sun.star.drawing.ClosedBezierShape">
        <g id="id46">
         <rect class="BoundingBox" stroke="none" fill="none" x="4845" y="3643" width="177" height="392"/>
         <path fill="rgb(59,59,59)" stroke="none" d="M 4898,3734 L 5009,3734 5009,3778 4898,3778 4898,3914 C 4898,3928 4899,3940 4902,3950 4904,3960 4907,3967 4912,3973 4916,3978 4922,3982 4929,3984 4935,3987 4943,3988 4952,3988 4968,3988 4981,3986 4990,3982 5000,3979 5007,3976 5010,3975 L 5021,4018 C 5015,4021 5006,4024 4993,4028 4980,4032 4965,4034 4948,4034 4928,4034 4911,4031 4898,4026 4886,4021 4875,4014 4867,4004 4859,3993 4854,3981 4851,3966 4847,3951 4846,3934 4846,3914 L 4846,3652 4898,3643 4898,3734 Z"/>
        </g>
       </g>
       <g class="com.sun.star.drawing.ClosedBezierShape">
        <g id="id47">
         <rect class="BoundingBox" stroke="none" fill="none" x="5052" y="3727" width="258" height="309"/>
         <path fill="rgb(59,59,59)" stroke="none" d="M 5053,3882 C 5053,3856 5057,3833 5064,3814 5072,3795 5082,3779 5094,3766 5106,3753 5121,3743 5137,3737 5153,3731 5170,3727 5186,3727 5226,3727 5256,3740 5277,3764 5298,3789 5309,3826 5309,3877 5309,3879 5309,3882 5309,3886 5309,3889 5309,3892 5308,3895 L 5107,3895 C 5110,3926 5119,3949 5134,3965 5149,3981 5173,3989 5206,3989 5225,3989 5240,3987 5253,3984 5265,3981 5275,3978 5281,3975 L 5289,4019 C 5282,4022 5271,4026 5255,4029 5239,4033 5221,4035 5201,4035 5175,4035 5153,4031 5134,4023 5116,4016 5100,4005 5088,3992 5076,3978 5067,3962 5062,3943 5056,3925 5053,3904 5053,3882 Z M 5254,3853 C 5254,3829 5249,3810 5236,3795 5224,3780 5207,3772 5186,3772 5174,3772 5163,3774 5154,3779 5145,3784 5137,3790 5131,3797 5124,3805 5119,3813 5116,3823 5112,3833 5110,3843 5109,3853 L 5254,3853 Z"/>
        </g>
       </g>
       <g class="com.sun.star.drawing.ClosedBezierShape">
        <g id="id48">
         <rect class="BoundingBox" stroke="none" fill="none" x="5382" y="3728" width="400" height="302"/>
         <path fill="rgb(59,59,59)" stroke="none" d="M 5382,3743 C 5394,3740 5410,3736 5430,3733 5450,3730 5472,3728 5498,3728 5517,3728 5533,3731 5546,3736 5558,3741 5569,3748 5578,3758 5580,3756 5585,3753 5590,3750 5596,3747 5603,3743 5611,3740 5619,3737 5629,3734 5639,3732 5649,3729 5660,3728 5671,3728 5694,3728 5712,3731 5727,3738 5741,3744 5752,3754 5760,3766 5768,3778 5774,3792 5777,3809 5779,3825 5781,3843 5781,3863 L 5781,4028 5728,4028 5728,3874 C 5728,3857 5728,3842 5726,3830 5724,3817 5721,3807 5716,3799 5712,3790 5705,3784 5697,3780 5689,3776 5679,3774 5666,3774 5648,3774 5634,3777 5622,3781 5611,3786 5603,3790 5599,3794 5602,3804 5604,3815 5605,3826 5607,3838 5608,3850 5608,3863 L 5608,4028 5555,4028 5555,3875 C 5555,3857 5554,3843 5552,3830 5551,3818 5547,3808 5543,3799 5538,3791 5531,3785 5523,3781 5515,3777 5505,3775 5493,3775 5487,3775 5482,3775 5476,3775 5470,3775 5464,3775 5459,3776 5453,3776 5448,3777 5444,3778 5439,3779 5436,3779 5435,3780 L 5435,4028 5382,4028 5382,3743 Z"/>
        </g>
       </g>
      </g>
      <g class="Graphic">
       <g id="id49">
        <rect class="BoundingBox" stroke="none" fill="none" x="6432" y="2499" width="1702" height="1702"/>
        <path fill="none" stroke="rgb(128,128,128)" stroke-width="53" stroke-linejoin="round" stroke-linecap="round" d="M 7300,4160 L 8040,4160 C 8070,4160 8093,4137 8093,4107 L 8093,2944 C 8093,2915 8070,2891 8040,2891 L 6560,2891 C 6530,2891 6507,2915 6507,2944 L 6507,4107 C 6507,4137 6530,4160 6560,4160 L 7300,4160 Z"/>
        <path fill="none" stroke="rgb(128,128,128)" stroke-width="53" stroke-linejoin="round" stroke-linecap="round" d="M 6517,2912 L 6649,2627 6649,2627 C 6651,2622 6653,2618 6656,2613 6663,2600 6672,2591 6685,2584 6695,2578 6706,2575 6718,2574 L 7882,2574 7882,2574 C 7893,2575 7903,2578 7913,2584 7925,2591 7934,2599 7941,2612 7944,2617 7946,2621 7948,2627 L 8085,2912"/>
        <path fill="none" stroke="rgb(128,128,128)" stroke-width="53" stroke-linejoin="round" stroke-linecap="round" d="M 7882,3949 L 7353,3949"/>
        <path fill="none" stroke="rgb(128,128,128)" stroke-width="53" stroke-linejoin="round" stroke-linecap="round" d="M 6507,3737 L 8093,3737"/>
        <path fill="none" stroke="rgb(128,128,128)" stroke-width="53" stroke-linejoin="round" stroke-linecap="round" d="M 7882,3526 L 7353,3526"/>
        <path fill="none" stroke="rgb(128,128,128)" stroke-width="53" stroke-linejoin="round" stroke-linecap="round" d="M 7882,3103 L 7353,3103"/>
        <path fill="none" stroke="rgb(128,128,128)" stroke-width="53" stroke-linejoin="round" stroke-linecap="round" d="M 6507,3314 L 8093,3314"/>
        <path fill="none" stroke="rgb(128,128,128)" stroke-width="53" stroke-linejoin="round" stroke-linecap="round" d="M 6798,3103 C 6798,3112 6795,3121 6790,3129 6786,3137 6780,3143 6771,3148 6763,3153 6754,3155 6745,3155 6735,3155 6727,3153 6718,3148 6710,3143 6704,3137 6699,3129 6694,3121 6692,3112 6692,3103 6692,3093 6694,3085 6699,3076 6704,3068 6710,3062 6718,3057 6727,3052 6735,3050 6745,3050 6754,3050 6763,3052 6771,3057 6780,3062 6786,3068 6790,3076 6795,3085 6798,3093 6798,3103 L 6798,3103 Z"/>
        <path fill="none" stroke="rgb(128,128,128)" stroke-width="53" stroke-linejoin="round" stroke-linecap="round" d="M 6798,3526 C 6798,3535 6795,3544 6790,3552 6786,3561 6780,3567 6771,3571 6763,3576 6754,3579 6745,3579 6735,3579 6727,3576 6718,3571 6710,3567 6704,3561 6699,3552 6694,3544 6692,3535 6692,3526 6692,3516 6694,3508 6699,3499 6704,3491 6710,3485 6718,3480 6727,3475 6735,3473 6745,3473 6754,3473 6763,3475 6771,3480 6780,3485 6786,3491 6790,3499 6795,3508 6798,3516 6798,3526 L 6798,3526 Z"/>
        <path fill="none" stroke="rgb(128,128,128)" stroke-width="53" stroke-linejoin="round" stroke-linecap="round" d="M 6798,3949 C 6798,3959 6795,3967 6790,3975 6786,3984 6780,3990 6771,3995 6763,3999 6754,4002 6745,4002 6735,4002 6727,3999 6718,3995 6710,3990 6704,3984 6699,3975 6694,3967 6692,3959 6692,3949 6692,3939 6694,3931 6699,3922 6704,3914 6710,3908 6718,3903 6727,3898 6735,3896 6745,3896 6754,3896 6763,3898 6771,3903 6780,3908 6786,3914 6790,3922 6795,3931 6798,3939 6798,3949 L 6798,3949 Z"/>
        <path fill="none" stroke="rgb(144,205,255)" stroke-width="53" stroke-linejoin="round" stroke-linecap="round" d="M 7265,4125 L 8005,4125 C 8035,4125 8058,4102 8058,4072 L 8058,2909 C 8058,2880 8035,2856 8005,2856 L 6525,2856 C 6495,2856 6472,2880 6472,2909 L 6472,4072 C 6472,4102 6495,4125 6525,4125 L 7265,4125 Z"/>
        <path fill="none" stroke="rgb(144,205,255)" stroke-width="53" stroke-linejoin="round" stroke-linecap="round" d="M 6482,2877 L 6614,2592 6614,2592 C 6616,2587 6618,2583 6621,2578 6628,2565 6637,2556 6650,2549 6660,2543 6671,2540 6683,2539 L 7847,2539 7847,2539 C 7858,2540 7868,2543 7878,2549 7890,2556 7899,2564 7906,2577 7909,2582 7911,2586 7913,2592 L 8050,2877"/>
        <path fill="none" stroke="rgb(144,205,255)" stroke-width="53" stroke-linejoin="round" stroke-linecap="round" d="M 7847,3914 L 7318,3914"/>
        <path fill="none" stroke="rgb(144,205,255)" stroke-width="53" stroke-linejoin="round" stroke-linecap="round" d="M 6472,3702 L 8058,3702"/>
        <path fill="none" stroke="rgb(144,205,255)" stroke-width="53" stroke-linejoin="round" stroke-linecap="round" d="M 7847,3491 L 7318,3491"/>
        <path fill="none" stroke="rgb(144,205,255)" stroke-width="53" stroke-linejoin="round" stroke-linecap="round" d="M 7847,3068 L 7318,3068"/>
        <path fill="none" stroke="rgb(144,205,255)" stroke-width="53" stroke-linejoin="round" stroke-linecap="round" d="M 6472,3279 L 8058,3279"/>
        <path fill="none" stroke="rgb(144,205,255)" stroke-width="53" stroke-linejoin="round" stroke-linecap="round" d="M 6763,3068 C 6763,3077 6760,3086 6755,3094 6751,3102 6745,3108 6736,3113 6728,3118 6719,3120 6710,3120 6700,3120 6692,3118 6683,3113 6675,3108 6669,3102 6664,3094 6659,3086 6657,3077 6657,3068 6657,3058 6659,3050 6664,3041 6669,3033 6675,3027 6683,3022 6692,3017 6700,3015 6710,3015 6719,3015 6728,3017 6736,3022 6745,3027 6751,3033 6755,3041 6760,3050 6763,3058 6763,3068 L 6763,3068 Z"/>
        <path fill="none" stroke="rgb(144,205,255)" stroke-width="53" stroke-linejoin="round" stroke-linecap="round" d="M 6763,3491 C 6763,3500 6760,3509 6755,3517 6751,3526 6745,3532 6736,3536 6728,3541 6719,3544 6710,3544 6700,3544 6692,3541 6683,3536 6675,3532 6669,3526 6664,3517 6659,3509 6657,3500 6657,3491 6657,3481 6659,3473 6664,3464 6669,3456 6675,3450 6683,3445 6692,3440 6700,3438 6710,3438 6719,3438 6728,3440 6736,3445 6745,3450 6751,3456 6755,3464 6760,3473 6763,3481 6763,3491 L 6763,3491 Z"/>
        <path fill="none" stroke="rgb(144,205,255)" stroke-width="53" stroke-linejoin="round" stroke-linecap="round" d="M 6763,3914 C 6763,3924 6760,3932 6755,3940 6751,3949 6745,3955 6736,3960 6728,3964 6719,3967 6710,3967 6700,3967 6692,3964 6683,3960 6675,3955 6669,3949 6664,3940 6659,3932 6657,3924 6657,3914 6657,3904 6659,3896 6664,3887 6669,3879 6675,3873 6683,3868 6692,3863 6700,3861 6710,3861 6719,3861 6728,3863 6736,3868 6745,3873 6751,3879 6755,3887 6760,3896 6763,3904 6763,3914 L 6763,3914 Z"/>
       </g>
      </g>
      <g class="Graphic">
       <g id="id50">
        <rect class="BoundingBox" stroke="none" fill="none" x="1299" y="6999" width="2601" height="2601"/>
        <path fill="none" stroke="rgb(96,96,96)" stroke-width="83" stroke-linejoin="round" stroke-linecap="round" d="M 1361,7061 L 3507,7061 3507,7556 1361,7556 1361,7061 Z"/>
        <path fill="none" stroke="rgb(96,96,96)" stroke-width="83" stroke-linejoin="round" stroke-linecap="round" d="M 3507,8010 L 3507,7556"/>
        <path fill="none" stroke="rgb(96,96,96)" stroke-width="83" stroke-linejoin="round" stroke-linecap="round" d="M 1361,7556 L 1361,8877 2682,8877"/>
        <path fill="none" stroke="rgb(96,96,96)" stroke-width="83" stroke-linejoin="round" stroke-linecap="round" d="M 3548,7969 L 2690,8823 2508,9289 2979,9112 3837,8258 3548,7969 3548,7969 Z"/>
        <path fill="none" stroke="rgb(96,96,96)" stroke-width="83" stroke-linejoin="round" stroke-linecap="round" d="M 2690,8823 L 2979,9112"/>
       </g>
      </g>
      <g class="com.sun.star.drawing.ClosedBezierShape">
       <g id="id51">
        <rect class="BoundingBox" stroke="none" fill="none" x="159" y="58" width="9282" height="5284"/>
        <path fill="none" stroke="rgb(93,93,93)" stroke-width="81" stroke-linejoin="round" d="M 1653,2012 C -267,2303 -266,4913 1547,5300 3679,5300 5812,5300 7944,5300 9650,5010 10184,2206 7731,1819 7304,-18 4851,-502 3679,948 2613,562 1760,1142 1653,2012 Z"/>
       </g>
      </g>
      <g class="com.sun.star.drawing.OpenBezierShape">
       <g id="id52">
        <rect class="BoundingBox" stroke="none" fill="none" x="2998" y="4799" width="3789" height="3437"/>
        <path fill="none" stroke="rgb(233,84,32)" stroke-width="71" stroke-linejoin="miter" d="M 2999,8199 L 6172,8199 C 6605,8199 6750,8029 6750,7520 L 6750,4799"/>
       </g>
      </g>
      <g class="Graphic">
       <g id="id53">
        <rect class="BoundingBox" stroke="none" fill="none" x="9755" y="7398" width="1944" height="2001"/>
        <path fill="none" stroke="rgb(98,98,98)" stroke-width="62" stroke-linejoin="round" stroke-linecap="round" d="M 9801,9255 L 9801,9255 C 9801,9273 9805,9288 9814,9303 9822,9318 9833,9329 9848,9338 9862,9346 9877,9350 9894,9350 L 10819,9350 10819,9350 C 10836,9350 10851,9346 10865,9338 10880,9329 10891,9318 10899,9303 10908,9288 10912,9273 10912,9255 L 10912,8969 9801,8969 9801,9255 Z"/>
        <path fill="none" stroke="rgb(98,98,98)" stroke-width="62" stroke-linejoin="round" stroke-linecap="round" d="M 10912,7541 L 10912,7541 10912,7541 C 10912,7523 10908,7508 10899,7493 10891,7478 10880,7467 10865,7458 10851,7450 10836,7446 10819,7446 L 9894,7446 9894,7446 C 9877,7446 9862,7450 9848,7458 9833,7467 9822,7478 9814,7493 9805,7508 9801,7523 9801,7541 L 9801,7700 10912,7700 10912,7541 Z"/>
        <path fill="none" stroke="rgb(98,98,98)" stroke-width="62" stroke-linejoin="round" stroke-linecap="round" d="M 10912,8969 L 10912,7700"/>
        <path fill="none" stroke="rgb(98,98,98)" stroke-width="62" stroke-linejoin="round" stroke-linecap="round" d="M 9801,7700 L 9801,8969"/>
       </g>
      </g>
      <g class="com.sun.star.drawing.LineShape">
       <g id="id54">
        <rect class="BoundingBox" stroke="none" fill="none" x="8315" y="8992" width="83" height="383"/>
        <path fill="none" stroke="rgb(102,102,102)" stroke-width="81" stroke-linejoin="round" d="M 8356,9333 L 8356,9033"/>
       </g>
      </g>
      <g class="com.sun.star.drawing.LineShape">
       <g id="id55">
        <rect class="BoundingBox" stroke="none" fill="none" x="7815" y="9292" width="1083" height="83"/>
        <path fill="none" stroke="rgb(102,102,102)" stroke-width="81" stroke-linejoin="round" d="M 7856,9333 L 8856,9333"/>
       </g>
      </g>
      <g class="com.sun.star.drawing.ClosedBezierShape">
       <g id="id56">
        <rect class="BoundingBox" stroke="none" fill="none" x="10065" y="6804" width="534" height="496"/>
        <path fill="rgb(233,84,32)" stroke="none" d="M 10598,6804 C 10598,6804 10494,7055 10331,7299 10169,7055 10065,6804 10065,6804 L 10331,6804 10598,6804 Z"/>
       </g>
      </g>
      <g class="com.sun.star.drawing.LineShape">
       <g id="id57">
        <rect class="BoundingBox" stroke="none" fill="none" x="7763" y="4363" width="73" height="2673"/>
        <path fill="none" stroke="rgb(233,84,32)" stroke-width="71" stroke-linejoin="round" d="M 7799,4399 L 7799,6999"/>
       </g>
      </g>
      <g class="com.sun.star.drawing.OpenBezierShape">
       <g id="id58">
        <rect class="BoundingBox" stroke="none" fill="none" x="7793" y="5764" width="2573" height="1173"/>
        <path fill="none" stroke="rgb(233,84,32)" stroke-width="71" stroke-linejoin="round" d="M 7829,5800 L 9929,5800 C 10329,5800 10329,6100 10329,6100 L 10329,6900"/>
       </g>
      </g>
      <g class="com.sun.star.drawing.LineShape">
       <g id="id59">
        <rect class="BoundingBox" stroke="none" fill="none" x="2480" y="9060" width="261" height="261"/>
        <path fill="none" stroke="rgb(93,93,93)" stroke-width="159" stroke-linejoin="round" d="M 2560,9140 L 2660,9240"/>
       </g>
      </g>
     </g>
    </g>
   </g>
  </g>
 </g>
</svg>
